<mxGraphModel dx="0" dy="0" grid="1" gridSize="10" guides="1" tooltips="1" connect="1" arrows="1" fold="1" page="0" pageScale="1" background="none" math="0" shadow="0">
  <root>
    <mxCell id="0" />
    <mxCell id="1" parent="0" />
    <mxCell id="node33" parent="1" vertex="1" value="&lt;p style=&quot;margin:0px;margin-top:4px;text-align:center;&quot;&gt;&lt;b&gt;BookingController&lt;/b&gt;&lt;/p&gt;&lt;hr size=&quot;1&quot;/&gt;&lt;p style=&quot;margin:0 0 0 4px;line-height:1.6;&quot;&gt;+ BookingController(): &lt;/p&gt;&lt;hr size=&quot;1&quot;/&gt;&lt;p style=&quot;margin:0 0 0 4px;line-height:1.6;&quot;&gt;+ doDelete(HttpServletRequest, HttpServletResponse): void&lt;br/&gt;# doPut(HttpServletRequest, HttpServletResponse): void&lt;br/&gt;+ doGet(HttpServletRequest, HttpServletResponse): void&lt;br/&gt;+ validateTripDetails(TripDetailsDTO, HttpServletResponse): ValidationResultDTO&lt;br/&gt;+ doPost(HttpServletRequest, HttpServletResponse): void&lt;/p&gt;" style="verticalAlign=top;align=left;overflow=fill;fontSize=14;fontFamily=Helvetica;html=1;rounded=0;shadow=0;comic=0;labelBackgroundColor=none;strokeWidth=1;">
      <mxGeometry x="875" y="4481" width="538" height="190" as="geometry" />
    </mxCell>
    <mxCell id="node10" parent="1" vertex="1" value="&lt;p style=&quot;margin:0px;margin-top:4px;text-align:center;&quot;&gt;&lt;b&gt;BookingControllerTest&lt;/b&gt;&lt;/p&gt;&lt;hr size=&quot;1&quot;/&gt;&lt;p style=&quot;margin:0 0 0 4px;line-height:1.6;&quot;&gt;+ BookingControllerTest(): &lt;/p&gt;&lt;hr size=&quot;1&quot;/&gt;&lt;p style=&quot;margin:0 0 0 4px;line-height:1.6;&quot;&gt;~ testDoDeleteValid(): void&lt;br/&gt;~ testDoDeleteUnauthorized(): void&lt;br/&gt;~ testDoPostUnauthorized(): void&lt;br/&gt;~ testDoPostValid(): void&lt;br/&gt;~ testDoGetUnauthorized(): void&lt;br/&gt;~ testDoGetValid(): void&lt;br/&gt;~ setUp(): void&lt;br/&gt;~ testDoPostInvalid(): void&lt;/p&gt;" style="verticalAlign=top;align=left;overflow=fill;fontSize=14;fontFamily=Helvetica;html=1;rounded=0;shadow=0;comic=0;labelBackgroundColor=none;strokeWidth=1;">
      <mxGeometry x="777" y="4805" width="255" height="262" as="geometry" />
    </mxCell>
    <mxCell id="node7" parent="1" vertex="1" value="&lt;p style=&quot;margin:0px;margin-top:4px;text-align:center;&quot;&gt;&lt;b&gt;BookingRepo&lt;/b&gt;&lt;/p&gt;&lt;hr size=&quot;1&quot;/&gt;&lt;p style=&quot;margin:0 0 0 4px;line-height:1.6;&quot;&gt;+ BookingRepo(): &lt;/p&gt;&lt;hr size=&quot;1&quot;/&gt;&lt;p style=&quot;margin:0 0 0 4px;line-height:1.6;&quot;&gt;+ getTrips(String): List&amp;lt;Trip&amp;gt;&lt;br/&gt;+ deleteBooking(UUID): boolean&lt;br/&gt;+ saveBooking(TripDetailsDTO): boolean&lt;br/&gt;+ updateBooking(TripDetailsDTO): boolean&lt;/p&gt;" style="verticalAlign=top;align=left;overflow=fill;fontSize=14;fontFamily=Helvetica;html=1;rounded=0;shadow=0;comic=0;labelBackgroundColor=none;strokeWidth=1;">
      <mxGeometry x="834" y="3213" width="301" height="166" as="geometry" />
    </mxCell>
    <mxCell id="node26" parent="1" vertex="1" value="&lt;p style=&quot;margin:0px;margin-top:4px;text-align:center;&quot;&gt;&lt;b&gt;BookingService&lt;/b&gt;&lt;/p&gt;&lt;hr size=&quot;1&quot;/&gt;&lt;p style=&quot;margin:0 0 0 4px;line-height:1.6;&quot;&gt;+ BookingService(): &lt;/p&gt;&lt;hr size=&quot;1&quot;/&gt;&lt;p style=&quot;margin:0 0 0 4px;line-height:1.6;&quot;&gt;+ getAllBookings(String): List&amp;lt;TripDetailsDTO&amp;gt;&lt;br/&gt;+ deleteBooking(UUID): ResultDTO&amp;lt;Boolean&amp;gt;&lt;br/&gt;+ updateBooking(TripDetailsDTO): ResultDTO&amp;lt;Boolean&amp;gt;&lt;br/&gt;+ save(TripDetailsDTO): ResultDTO&amp;lt;Boolean&amp;gt;&lt;/p&gt;" style="verticalAlign=top;align=left;overflow=fill;fontSize=14;fontFamily=Helvetica;html=1;rounded=0;shadow=0;comic=0;labelBackgroundColor=none;strokeWidth=1;">
      <mxGeometry x="631" y="4053" width="386" height="166" as="geometry" />
    </mxCell>
    <mxCell id="node37" parent="1" vertex="1" value="&lt;p style=&quot;margin:0px;margin-top:4px;text-align:center;&quot;&gt;&lt;b&gt;CorsFilter&lt;/b&gt;&lt;/p&gt;&lt;hr size=&quot;1&quot;/&gt;&lt;p style=&quot;margin:0 0 0 4px;line-height:1.6;&quot;&gt;+ CorsFilter(): &lt;/p&gt;&lt;hr size=&quot;1&quot;/&gt;&lt;p style=&quot;margin:0 0 0 4px;line-height:1.6;&quot;&gt;+ init(FilterConfig): void&lt;br/&gt;+ doFilter(ServletRequest, ServletResponse, FilterChain): void&lt;/p&gt;" style="verticalAlign=top;align=left;overflow=fill;fontSize=14;fontFamily=Helvetica;html=1;rounded=0;shadow=0;comic=0;labelBackgroundColor=none;strokeWidth=1;">
      <mxGeometry x="935" y="5137" width="418" height="127" as="geometry" />
    </mxCell>
    <mxCell id="node19" parent="1" vertex="1" value="&lt;p style=&quot;margin:0px;margin-top:4px;text-align:center;&quot;&gt;&lt;b&gt;DBConnection&lt;/b&gt;&lt;/p&gt;&lt;hr size=&quot;1&quot;/&gt;&lt;p style=&quot;margin:0 0 0 4px;line-height:1.6;&quot;&gt;- DBConnection(): &lt;/p&gt;&lt;hr size=&quot;1&quot;/&gt;&lt;p style=&quot;margin:0 0 0 4px;line-height:1.6;&quot;&gt;- connection: Connection&lt;br/&gt;- instance: DBConnection&lt;/p&gt;&lt;hr size=&quot;1&quot;/&gt;&lt;p style=&quot;margin:0 0 0 4px;line-height:1.6;&quot;&gt;- createConnection(): Connection&lt;br/&gt;+ isConnectionValid(int): boolean&lt;br/&gt;+ closeConnection(): void&lt;/p&gt;&lt;hr size=&quot;1&quot;/&gt;&lt;p style=&quot;margin:0 0 0 4px;line-height:1.6;&quot;&gt; connection: Connection&lt;br/&gt; instance: DBConnection&lt;/p&gt;" style="verticalAlign=top;align=left;overflow=fill;fontSize=14;fontFamily=Helvetica;html=1;rounded=0;shadow=0;comic=0;labelBackgroundColor=none;strokeWidth=1;">
      <mxGeometry x="381" y="4810" width="246" height="252" as="geometry" />
    </mxCell>
    <mxCell id="node0" parent="1" vertex="1" value="&lt;p style=&quot;margin:0px;margin-top:4px;text-align:center;&quot;&gt;&lt;b&gt;EmailService&lt;/b&gt;&lt;/p&gt;&lt;hr size=&quot;1&quot;/&gt;&lt;p style=&quot;margin:0 0 0 4px;line-height:1.6;&quot;&gt;+ EmailService(): &lt;/p&gt;&lt;hr size=&quot;1&quot;/&gt;&lt;p style=&quot;margin:0 0 0 4px;line-height:1.6;&quot;&gt;+ sendBookingConfirmation(String, String, String): void&lt;/p&gt;" style="verticalAlign=top;align=left;overflow=fill;fontSize=14;fontFamily=Helvetica;html=1;rounded=0;shadow=0;comic=0;labelBackgroundColor=none;strokeWidth=1;">
      <mxGeometry x="94" y="5149" width="381" height="102" as="geometry" />
    </mxCell>
    <mxCell id="node24" parent="1" vertex="1" value="&lt;p style=&quot;margin:0px;margin-top:4px;text-align:center;&quot;&gt;&lt;i&gt;&amp;lt;&amp;lt;interface&amp;gt;&amp;gt;&lt;/i&gt;&lt;br/&gt;&lt;b&gt;IBookingRepo&lt;/b&gt;&lt;/p&gt;&lt;hr size=&quot;1&quot;/&gt;&lt;p style=&quot;margin:0 0 0 4px;line-height:1.6;&quot;&gt;+ saveBooking(TripDetailsDTO): boolean&lt;br/&gt;+ updateBooking(TripDetailsDTO): boolean&lt;br/&gt;+ deleteBooking(UUID): boolean&lt;br/&gt;+ getTrips(String): List&amp;lt;Trip&amp;gt;&lt;/p&gt;" style="verticalAlign=top;align=left;overflow=fill;fontSize=14;fontFamily=Helvetica;html=1;rounded=0;shadow=0;comic=0;labelBackgroundColor=none;strokeWidth=1;">
      <mxGeometry x="594" y="1089" width="301" height="169" as="geometry" />
    </mxCell>
    <mxCell id="node11" parent="1" vertex="1" value="&lt;p style=&quot;margin:0px;margin-top:4px;text-align:center;&quot;&gt;&lt;i&gt;&amp;lt;&amp;lt;interface&amp;gt;&amp;gt;&lt;/i&gt;&lt;br/&gt;&lt;b&gt;IBookingService&lt;/b&gt;&lt;/p&gt;&lt;hr size=&quot;1&quot;/&gt;&lt;p style=&quot;margin:0 0 0 4px;line-height:1.6;&quot;&gt;+ updateBooking(TripDetailsDTO): ResultDTO&amp;lt;Boolean&amp;gt;&lt;br/&gt;+ deleteBooking(UUID): ResultDTO&amp;lt;Boolean&amp;gt;&lt;br/&gt;+ getAllBookings(String): List&amp;lt;TripDetailsDTO&amp;gt;&lt;br/&gt;+ save(TripDetailsDTO): ResultDTO&amp;lt;Boolean&amp;gt;&lt;/p&gt;" style="verticalAlign=top;align=left;overflow=fill;fontSize=14;fontFamily=Helvetica;html=1;rounded=0;shadow=0;comic=0;labelBackgroundColor=none;strokeWidth=1;">
      <mxGeometry x="1091" y="1669" width="386" height="169" as="geometry" />
    </mxCell>
    <mxCell id="node31" parent="1" vertex="1" value="&lt;p style=&quot;margin:0px;margin-top:4px;text-align:center;&quot;&gt;&lt;i&gt;&amp;lt;&amp;lt;interface&amp;gt;&amp;gt;&lt;/i&gt;&lt;br/&gt;&lt;b&gt;ISuperRepo&lt;/b&gt;&lt;/p&gt;&lt;hr size=&quot;1&quot;/&gt;" style="verticalAlign=top;align=left;overflow=fill;fontSize=14;fontFamily=Helvetica;html=1;rounded=0;shadow=0;comic=0;labelBackgroundColor=none;strokeWidth=1;">
      <mxGeometry x="675" y="62" width="139" height="35" as="geometry" />
    </mxCell>
    <mxCell id="node23" parent="1" vertex="1" value="&lt;p style=&quot;margin:0px;margin-top:4px;text-align:center;&quot;&gt;&lt;i&gt;&amp;lt;&amp;lt;interface&amp;gt;&amp;gt;&lt;/i&gt;&lt;br/&gt;&lt;b&gt;ISuperService&lt;/b&gt;&lt;/p&gt;&lt;hr size=&quot;1&quot;/&gt;" style="verticalAlign=top;align=left;overflow=fill;fontSize=14;fontFamily=Helvetica;html=1;rounded=0;shadow=0;comic=0;labelBackgroundColor=none;strokeWidth=1;">
      <mxGeometry x="1205" y="1142" width="158" height="35" as="geometry" />
    </mxCell>
    <mxCell id="node3" parent="1" vertex="1" value="&lt;p style=&quot;margin:0px;margin-top:4px;text-align:center;&quot;&gt;&lt;i&gt;&amp;lt;&amp;lt;interface&amp;gt;&amp;gt;&lt;/i&gt;&lt;br/&gt;&lt;b&gt;IUserRepo&lt;/b&gt;&lt;/p&gt;&lt;hr size=&quot;1&quot;/&gt;&lt;p style=&quot;margin:0 0 0 4px;line-height:1.6;&quot;&gt;+ checkUserExists(String): boolean&lt;br/&gt;+ saveUser(SignUpDTO): boolean&lt;br/&gt;+ findUserByEmail(String): User&lt;/p&gt;" style="verticalAlign=top;align=left;overflow=fill;fontSize=14;fontFamily=Helvetica;html=1;rounded=0;shadow=0;comic=0;labelBackgroundColor=none;strokeWidth=1;">
      <mxGeometry x="1677" y="501" width="254" height="139" as="geometry" />
    </mxCell>
    <mxCell id="node18" parent="1" vertex="1" value="&lt;p style=&quot;margin:0px;margin-top:4px;text-align:center;&quot;&gt;&lt;i&gt;&amp;lt;&amp;lt;interface&amp;gt;&amp;gt;&lt;/i&gt;&lt;br/&gt;&lt;b&gt;IUserService&lt;/b&gt;&lt;/p&gt;&lt;hr size=&quot;1&quot;/&gt;&lt;p style=&quot;margin:0 0 0 4px;line-height:1.6;&quot;&gt;+ validateUser(String, String): LoginResponseDTO&lt;br/&gt;+ registerUser(SignUpDTO): boolean&lt;/p&gt;" style="verticalAlign=top;align=left;overflow=fill;fontSize=14;fontFamily=Helvetica;html=1;rounded=0;shadow=0;comic=0;labelBackgroundColor=none;strokeWidth=1;">
      <mxGeometry x="1691" y="2213" width="346" height="109" as="geometry" />
    </mxCell>
    <mxCell id="node21" parent="1" vertex="1" value="&lt;p style=&quot;margin:0px;margin-top:4px;text-align:center;&quot;&gt;&lt;i&gt;&amp;lt;&amp;lt;interface&amp;gt;&amp;gt;&lt;/i&gt;&lt;br/&gt;&lt;b&gt;IVehicleRepo&lt;/b&gt;&lt;/p&gt;&lt;hr size=&quot;1&quot;/&gt;&lt;p style=&quot;margin:0 0 0 4px;line-height:1.6;&quot;&gt;+ addVehicle(VehicleDTO): boolean&lt;br/&gt;+ getVehicleIdByType(VehicleTypes): UUID&lt;br/&gt;+ updateVehicle(VehicleDTO): boolean&lt;br/&gt;+ deleteVehicle(UUID): boolean&lt;/p&gt;&lt;hr size=&quot;1&quot;/&gt;&lt;p style=&quot;margin:0 0 0 4px;line-height:1.6;&quot;&gt; vehicles: Vehicle[]&lt;/p&gt;" style="verticalAlign=top;align=left;overflow=fill;fontSize=14;fontFamily=Helvetica;html=1;rounded=0;shadow=0;comic=0;labelBackgroundColor=none;strokeWidth=1;">
      <mxGeometry x="774" y="473" width="300" height="166" as="geometry" />
    </mxCell>
    <mxCell id="node8" parent="1" vertex="1" value="&lt;p style=&quot;margin:0px;margin-top:4px;text-align:center;&quot;&gt;&lt;i&gt;&amp;lt;&amp;lt;interface&amp;gt;&amp;gt;&lt;/i&gt;&lt;br/&gt;&lt;b&gt;IVehicleService&lt;/b&gt;&lt;/p&gt;&lt;hr size=&quot;1&quot;/&gt;&lt;p style=&quot;margin:0 0 0 4px;line-height:1.6;&quot;&gt;+ updateVehicle(VehicleDTO): ResultDTO&amp;lt;Boolean&amp;gt;&lt;br/&gt;+ deleteVehicle(UUID): ResultDTO&amp;lt;Boolean&amp;gt;&lt;br/&gt;+ addVehicle(VehicleDTO): ResultDTO&amp;lt;Boolean&amp;gt;&lt;/p&gt;&lt;hr size=&quot;1&quot;/&gt;&lt;p style=&quot;margin:0 0 0 4px;line-height:1.6;&quot;&gt; vehicles: VehicleDTO[]&lt;/p&gt;" style="verticalAlign=top;align=left;overflow=fill;fontSize=14;fontFamily=Helvetica;html=1;rounded=0;shadow=0;comic=0;labelBackgroundColor=none;strokeWidth=1;">
      <mxGeometry x="665" y="1665" width="358" height="142" as="geometry" />
    </mxCell>
    <mxCell id="node38" parent="1" vertex="1" value="&lt;p style=&quot;margin:0px;margin-top:4px;text-align:center;&quot;&gt;&lt;b&gt;JwtUtil&lt;/b&gt;&lt;/p&gt;&lt;hr size=&quot;1&quot;/&gt;&lt;p style=&quot;margin:0 0 0 4px;line-height:1.6;&quot;&gt;+ JwtUtil(): &lt;/p&gt;&lt;hr size=&quot;1&quot;/&gt;&lt;p style=&quot;margin:0 0 0 4px;line-height:1.6;&quot;&gt;- validateToken(String): String?&lt;br/&gt;+ generateToken(String, RoleType): String?&lt;br/&gt;+ isTokenExpired(String): boolean&lt;br/&gt;- isTokenValid(String): boolean&lt;br/&gt;+ isAdmin(String): boolean&lt;br/&gt;+ getUsernameFromToken(String): String&lt;/p&gt;" style="verticalAlign=top;align=left;overflow=fill;fontSize=14;fontFamily=Helvetica;html=1;rounded=0;shadow=0;comic=0;labelBackgroundColor=none;strokeWidth=1;">
      <mxGeometry x="2032" y="3709" width="304" height="214" as="geometry" />
    </mxCell>
    <mxCell id="node29" parent="1" vertex="1" value="&lt;p style=&quot;margin:0px;margin-top:4px;text-align:center;&quot;&gt;&lt;b&gt;LoginDTO&lt;/b&gt;&lt;/p&gt;&lt;hr size=&quot;1&quot;/&gt;&lt;p style=&quot;margin:0 0 0 4px;line-height:1.6;&quot;&gt;+ LoginDTO(): &lt;br/&gt;+ LoginDTO(String, String): &lt;/p&gt;&lt;hr size=&quot;1&quot;/&gt;&lt;p style=&quot;margin:0 0 0 4px;line-height:1.6;&quot;&gt;- email: String&lt;br/&gt;- password: String&lt;/p&gt;&lt;hr size=&quot;1&quot;/&gt;&lt;p style=&quot;margin:0 0 0 4px;line-height:1.6;&quot;&gt;+ toString(): String&lt;/p&gt;&lt;hr size=&quot;1&quot;/&gt;&lt;p style=&quot;margin:0 0 0 4px;line-height:1.6;&quot;&gt; email: String&lt;br/&gt; password: String&lt;/p&gt;" style="verticalAlign=top;align=left;overflow=fill;fontSize=14;fontFamily=Helvetica;html=1;rounded=0;shadow=0;comic=0;labelBackgroundColor=none;strokeWidth=1;">
      <mxGeometry x="1900" y="4022" width="208" height="228" as="geometry" />
    </mxCell>
    <mxCell id="node30" parent="1" vertex="1" value="&lt;p style=&quot;margin:0px;margin-top:4px;text-align:center;&quot;&gt;&lt;b&gt;LoginResponseDTO&lt;/b&gt;&lt;/p&gt;&lt;hr size=&quot;1&quot;/&gt;&lt;p style=&quot;margin:0 0 0 4px;line-height:1.6;&quot;&gt;+ LoginResponseDTO(boolean, String, String, RoleType, String): &lt;br/&gt;+ LoginResponseDTO(boolean, String, String): &lt;/p&gt;&lt;hr size=&quot;1&quot;/&gt;&lt;p style=&quot;margin:0 0 0 4px;line-height:1.6;&quot;&gt;- isValid: boolean&lt;br/&gt;- error: String&lt;br/&gt;- username: String&lt;br/&gt;- role: RoleType&lt;br/&gt;- message: String&lt;/p&gt;&lt;hr size=&quot;1&quot;/&gt;&lt;p style=&quot;margin:0 0 0 4px;line-height:1.6;&quot;&gt;+ toString(): String&lt;/p&gt;&lt;hr size=&quot;1&quot;/&gt;&lt;p style=&quot;margin:0 0 0 4px;line-height:1.6;&quot;&gt; username: String&lt;br/&gt; role: RoleType&lt;br/&gt; isValid: boolean&lt;br/&gt; message: String&lt;br/&gt; error: String&lt;/p&gt;" style="verticalAlign=top;align=left;overflow=fill;fontSize=14;fontFamily=Helvetica;html=1;rounded=0;shadow=0;comic=0;labelBackgroundColor=none;strokeWidth=1;">
      <mxGeometry x="2305" y="1550" width="438" height="372" as="geometry" />
    </mxCell>
    <mxCell id="node25" parent="1" vertex="1" value="&lt;p style=&quot;margin:0px;margin-top:4px;text-align:center;&quot;&gt;&lt;b&gt;ResultDTO&lt;T&gt;&lt;/b&gt;&lt;/p&gt;&lt;hr size=&quot;1&quot;/&gt;&lt;p style=&quot;margin:0 0 0 4px;line-height:1.6;&quot;&gt;+ ResultDTO(String, int): &lt;br/&gt;+ ResultDTO(String, int, T): &lt;br/&gt;+ ResultDTO(String): &lt;/p&gt;&lt;hr size=&quot;1&quot;/&gt;&lt;p style=&quot;margin:0 0 0 4px;line-height:1.6;&quot;&gt;- message: String&lt;br/&gt;- code: int&lt;br/&gt;- data: T&lt;/p&gt;&lt;hr size=&quot;1&quot;/&gt;&lt;p style=&quot;margin:0 0 0 4px;line-height:1.6;&quot;&gt;+ toString(): String&lt;/p&gt;&lt;hr size=&quot;1&quot;/&gt;&lt;p style=&quot;margin:0 0 0 4px;line-height:1.6;&quot;&gt; code: int&lt;br/&gt; data: T&lt;br/&gt; message: String&lt;/p&gt;" style="verticalAlign=top;align=left;overflow=fill;fontSize=14;fontFamily=Helvetica;html=1;rounded=0;shadow=0;comic=0;labelBackgroundColor=none;strokeWidth=1;">
      <mxGeometry x="-139" y="2106" width="207" height="300" as="geometry" />
    </mxCell>
    <mxCell id="node2" parent="1" vertex="1" value="&lt;p style=&quot;margin:0px;margin-top:4px;text-align:center;&quot;&gt;&lt;i&gt;&amp;lt;&amp;lt;enumeration&amp;gt;&amp;gt;&lt;/i&gt;&lt;br/&gt;&lt;b&gt;RoleType&lt;/b&gt;&lt;/p&gt;&lt;hr size=&quot;1&quot;/&gt;&lt;p style=&quot;margin:0 0 0 4px;line-height:1.6;&quot;&gt;+ RoleType(): &lt;/p&gt;&lt;hr size=&quot;1&quot;/&gt;&lt;p style=&quot;margin:0 0 0 4px;line-height:1.6;&quot;&gt;+ valueOf(String): RoleType&lt;br/&gt;+ values(): RoleType[]&lt;/p&gt;" style="verticalAlign=top;align=left;overflow=fill;fontSize=14;fontFamily=Helvetica;html=1;rounded=0;shadow=0;comic=0;labelBackgroundColor=none;strokeWidth=1;">
      <mxGeometry x="1942" y="17" width="204" height="148" as="geometry" />
    </mxCell>
    <mxCell id="node32" parent="1" vertex="1" value="&lt;p style=&quot;margin:0px;margin-top:4px;text-align:center;&quot;&gt;&lt;b&gt;SendResponse&lt;/b&gt;&lt;/p&gt;&lt;hr size=&quot;1&quot;/&gt;&lt;p style=&quot;margin:0 0 0 4px;line-height:1.6;&quot;&gt;+ SendResponse(): &lt;/p&gt;&lt;hr size=&quot;1&quot;/&gt;&lt;p style=&quot;margin:0 0 0 4px;line-height:1.6;&quot;&gt;+ sendJsonResponse(HttpServletResponse, int, String, String, String): void&lt;br/&gt;+ sendJsonResponseData(HttpServletResponse, int, String, String, String, T): void&lt;/p&gt;" style="verticalAlign=top;align=left;overflow=fill;fontSize=14;fontFamily=Helvetica;html=1;rounded=0;shadow=0;comic=0;labelBackgroundColor=none;strokeWidth=1;">
      <mxGeometry x="1235" y="3237" width="458" height="127" as="geometry" />
    </mxCell>
    <mxCell id="node16" parent="1" vertex="1" value="&lt;p style=&quot;margin:0px;margin-top:4px;text-align:center;&quot;&gt;&lt;b&gt;SignUpDTO&lt;/b&gt;&lt;/p&gt;&lt;hr size=&quot;1&quot;/&gt;&lt;p style=&quot;margin:0 0 0 4px;line-height:1.6;&quot;&gt;+ SignUpDTO(String, String, String, String, String): &lt;br/&gt;+ SignUpDTO(): &lt;/p&gt;&lt;hr size=&quot;1&quot;/&gt;&lt;p style=&quot;margin:0 0 0 4px;line-height:1.6;&quot;&gt;- email: String&lt;br/&gt;- address: String&lt;br/&gt;- username: String&lt;br/&gt;- phone: String&lt;br/&gt;- password: String&lt;/p&gt;&lt;hr size=&quot;1&quot;/&gt;&lt;p style=&quot;margin:0 0 0 4px;line-height:1.6;&quot;&gt;+ toString(): String&lt;/p&gt;&lt;hr size=&quot;1&quot;/&gt;&lt;p style=&quot;margin:0 0 0 4px;line-height:1.6;&quot;&gt; password: String&lt;br/&gt; username: String&lt;br/&gt; address: String&lt;br/&gt; email: String&lt;br/&gt; phone: String&lt;/p&gt;" style="verticalAlign=top;align=left;overflow=fill;fontSize=14;fontFamily=Helvetica;html=1;rounded=0;shadow=0;comic=0;labelBackgroundColor=none;strokeWidth=1;">
      <mxGeometry x="2387" y="3950" width="355" height="372" as="geometry" />
    </mxCell>
    <mxCell id="node17" parent="1" vertex="1" value="&lt;p style=&quot;margin:0px;margin-top:4px;text-align:center;&quot;&gt;&lt;b&gt;Trip&lt;/b&gt;&lt;/p&gt;&lt;hr size=&quot;1&quot;/&gt;&lt;p style=&quot;margin:0 0 0 4px;line-height:1.6;&quot;&gt;+ Trip(String, String, String, long, String, String, String, String, String, int): &lt;br/&gt;+ Trip(): &lt;/p&gt;&lt;hr size=&quot;1&quot;/&gt;&lt;p style=&quot;margin:0 0 0 4px;line-height:1.6;&quot;&gt;- destination: String&lt;br/&gt;- startTime: String&lt;br/&gt;- fare: String&lt;br/&gt;- startLocation: String&lt;br/&gt;- date: long&lt;br/&gt;- passengerCount: int&lt;br/&gt;- customerId: String&lt;br/&gt;- tripId: String&lt;br/&gt;- vehicleId: String&lt;br/&gt;- distance: String&lt;/p&gt;&lt;hr size=&quot;1&quot;/&gt;&lt;p style=&quot;margin:0 0 0 4px;line-height:1.6;&quot;&gt;+ toString(): String&lt;/p&gt;&lt;hr size=&quot;1&quot;/&gt;&lt;p style=&quot;margin:0 0 0 4px;line-height:1.6;&quot;&gt; tripId: String&lt;br/&gt; customerId: String&lt;br/&gt; startTime: String&lt;br/&gt; startLocation: String&lt;br/&gt; fare: String&lt;br/&gt; distance: String&lt;br/&gt; vehicleId: String&lt;br/&gt; passengerCount: int&lt;br/&gt; date: long&lt;br/&gt; destination: String&lt;/p&gt;" style="verticalAlign=top;align=left;overflow=fill;fontSize=14;fontFamily=Helvetica;html=1;rounded=0;shadow=0;comic=0;labelBackgroundColor=none;strokeWidth=1;">
      <mxGeometry x="873" y="1950" width="383" height="612" as="geometry" />
    </mxCell>
    <mxCell id="node4" parent="1" vertex="1" value="&lt;p style=&quot;margin:0px;margin-top:4px;text-align:center;&quot;&gt;&lt;b&gt;TripDetailsDTO&lt;/b&gt;&lt;/p&gt;&lt;hr size=&quot;1&quot;/&gt;&lt;p style=&quot;margin:0 0 0 4px;line-height:1.6;&quot;&gt;+ TripDetailsDTO(String, String, String, long, String, String, String, String, int, String): &lt;br/&gt;+ TripDetailsDTO(String, String, int, String, String, String, String, int, String): &lt;br/&gt;+ TripDetailsDTO(): &lt;/p&gt;&lt;hr size=&quot;1&quot;/&gt;&lt;p style=&quot;margin:0 0 0 4px;line-height:1.6;&quot;&gt;- date: long&lt;br/&gt;- customerEmail: String&lt;br/&gt;- destination: String&lt;br/&gt;- tripId: String&lt;br/&gt;- startTime: String&lt;br/&gt;- fare: String&lt;br/&gt;- passengerCount: int&lt;br/&gt;- startLocation: String&lt;br/&gt;- vehicleType: String&lt;br/&gt;- distance: String&lt;/p&gt;&lt;hr size=&quot;1&quot;/&gt;&lt;p style=&quot;margin:0 0 0 4px;line-height:1.6;&quot;&gt;+ toString(): String&lt;/p&gt;&lt;hr size=&quot;1&quot;/&gt;&lt;p style=&quot;margin:0 0 0 4px;line-height:1.6;&quot;&gt; tripId: String&lt;br/&gt; startTime: String&lt;br/&gt; startLocation: String&lt;br/&gt; fare: String&lt;br/&gt; distance: String&lt;br/&gt; customerEmail: String&lt;br/&gt; passengerCount: int&lt;br/&gt; vehicleType: String&lt;br/&gt; date: long&lt;br/&gt; destination: String&lt;/p&gt;" style="verticalAlign=top;align=left;overflow=fill;fontSize=14;fontFamily=Helvetica;html=1;rounded=0;shadow=0;comic=0;labelBackgroundColor=none;strokeWidth=1;">
      <mxGeometry x="-50" y="2978" width="388" height="636" as="geometry" />
    </mxCell>
    <mxCell id="node28" parent="1" vertex="1" value="&lt;p style=&quot;margin:0px;margin-top:4px;text-align:center;&quot;&gt;&lt;b&gt;User&lt;/b&gt;&lt;/p&gt;&lt;hr size=&quot;1&quot;/&gt;&lt;p style=&quot;margin:0 0 0 4px;line-height:1.6;&quot;&gt;+ User(UUID, String, String, String, RoleType): &lt;br/&gt;+ User(): &lt;br/&gt;+ User(UUID, String, String, String, String, String, RoleType): &lt;/p&gt;&lt;hr size=&quot;1&quot;/&gt;&lt;p style=&quot;margin:0 0 0 4px;line-height:1.6;&quot;&gt;- user_id: UUID&lt;br/&gt;- username: String&lt;br/&gt;- phone_number: String&lt;br/&gt;- address: String&lt;br/&gt;- role: RoleType&lt;br/&gt;- password_hash: String&lt;br/&gt;- email: String&lt;/p&gt;&lt;hr size=&quot;1&quot;/&gt;&lt;p style=&quot;margin:0 0 0 4px;line-height:1.6;&quot;&gt;+ toString(): String&lt;/p&gt;&lt;hr size=&quot;1&quot;/&gt;&lt;p style=&quot;margin:0 0 0 4px;line-height:1.6;&quot;&gt; email: String&lt;br/&gt; password_hash: String&lt;br/&gt; phone_number: String&lt;br/&gt; user_id: UUID&lt;br/&gt; username: String&lt;br/&gt; address: String&lt;br/&gt; role: RoleType&lt;/p&gt;" style="verticalAlign=top;align=left;overflow=fill;fontSize=14;fontFamily=Helvetica;html=1;rounded=0;shadow=0;comic=0;labelBackgroundColor=none;strokeWidth=1;">
      <mxGeometry x="2075" y="310" width="418" height="492" as="geometry" />
    </mxCell>
    <mxCell id="node20" parent="1" vertex="1" value="&lt;p style=&quot;margin:0px;margin-top:4px;text-align:center;&quot;&gt;&lt;b&gt;UserController&lt;/b&gt;&lt;/p&gt;&lt;hr size=&quot;1&quot;/&gt;&lt;p style=&quot;margin:0 0 0 4px;line-height:1.6;&quot;&gt;+ UserController(): &lt;/p&gt;&lt;hr size=&quot;1&quot;/&gt;&lt;p style=&quot;margin:0 0 0 4px;line-height:1.6;&quot;&gt;- validateUser(SignUpDTO): ValidationResultDTO&lt;br/&gt;- isValidPassword(String): boolean&lt;br/&gt;- isValidUsername(String): boolean&lt;br/&gt;+ doPost(HttpServletRequest, HttpServletResponse): void&lt;br/&gt;+ registerUser(HttpServletRequest, HttpServletResponse): void&lt;br/&gt;- isValidPhone(String): boolean&lt;br/&gt;+ loginUser(HttpServletRequest, HttpServletResponse): void&lt;br/&gt;# doGet(HttpServletRequest, HttpServletResponse): void&lt;br/&gt;- isValidEmail(String): boolean&lt;/p&gt;" style="verticalAlign=top;align=left;overflow=fill;fontSize=14;fontFamily=Helvetica;html=1;rounded=0;shadow=0;comic=0;labelBackgroundColor=none;strokeWidth=1;">
      <mxGeometry x="1392" y="3993" width="425" height="286" as="geometry" />
    </mxCell>
    <mxCell id="node34" parent="1" vertex="1" value="&lt;p style=&quot;margin:0px;margin-top:4px;text-align:center;&quot;&gt;&lt;b&gt;UserControllerTest&lt;/b&gt;&lt;/p&gt;&lt;hr size=&quot;1&quot;/&gt;&lt;p style=&quot;margin:0 0 0 4px;line-height:1.6;&quot;&gt;+ UserControllerTest(): &lt;/p&gt;&lt;hr size=&quot;1&quot;/&gt;&lt;p style=&quot;margin:0 0 0 4px;line-height:1.6;&quot;&gt;+ setup(): void&lt;br/&gt;+ testRegisterUser_Success(): void&lt;br/&gt;+ testRegisterUser_Failure(): void&lt;br/&gt;+ testLoginUser_Success(): void&lt;br/&gt;+ testLoginUser_Failure(): void&lt;/p&gt;" style="verticalAlign=top;align=left;overflow=fill;fontSize=14;fontFamily=Helvetica;html=1;rounded=0;shadow=0;comic=0;labelBackgroundColor=none;strokeWidth=1;">
      <mxGeometry x="1819" y="4481" width="251" height="190" as="geometry" />
    </mxCell>
    <mxCell id="node35" parent="1" vertex="1" value="&lt;p style=&quot;margin:0px;margin-top:4px;text-align:center;&quot;&gt;&lt;b&gt;UserDTO&lt;/b&gt;&lt;/p&gt;&lt;hr size=&quot;1&quot;/&gt;&lt;p style=&quot;margin:0 0 0 4px;line-height:1.6;&quot;&gt;+ UserDTO(UUID, String, String, String, String, String, RoleType): &lt;br/&gt;+ UserDTO(): &lt;/p&gt;&lt;hr size=&quot;1&quot;/&gt;&lt;p style=&quot;margin:0 0 0 4px;line-height:1.6;&quot;&gt;- role: RoleType&lt;br/&gt;- address: String&lt;br/&gt;- username: String&lt;br/&gt;- password_hash: String&lt;br/&gt;- email: String&lt;br/&gt;- phone_number: String&lt;br/&gt;- user_id: UUID&lt;/p&gt;&lt;hr size=&quot;1&quot;/&gt;&lt;p style=&quot;margin:0 0 0 4px;line-height:1.6;&quot;&gt;+ toString(): String&lt;/p&gt;&lt;hr size=&quot;1&quot;/&gt;&lt;p style=&quot;margin:0 0 0 4px;line-height:1.6;&quot;&gt; email: String&lt;br/&gt; password_hash: String&lt;br/&gt; phone_number: String&lt;br/&gt; user_id: UUID&lt;br/&gt; username: String&lt;br/&gt; address: String&lt;br/&gt; role: RoleType&lt;/p&gt;" style="verticalAlign=top;align=left;overflow=fill;fontSize=14;fontFamily=Helvetica;html=1;rounded=0;shadow=0;comic=0;labelBackgroundColor=none;strokeWidth=1;">
      <mxGeometry x="1832" y="922" width="424" height="468" as="geometry" />
    </mxCell>
    <mxCell id="node39" parent="1" vertex="1" value="&lt;p style=&quot;margin:0px;margin-top:4px;text-align:center;&quot;&gt;&lt;b&gt;UserRepo&lt;/b&gt;&lt;/p&gt;&lt;hr size=&quot;1&quot;/&gt;&lt;p style=&quot;margin:0 0 0 4px;line-height:1.6;&quot;&gt;+ UserRepo(): &lt;/p&gt;&lt;hr size=&quot;1&quot;/&gt;&lt;p style=&quot;margin:0 0 0 4px;line-height:1.6;&quot;&gt;+ checkUserExists(String): boolean&lt;br/&gt;+ saveUser(SignUpDTO): boolean&lt;br/&gt;+ findUserByEmail(String): User&lt;/p&gt;" style="verticalAlign=top;align=left;overflow=fill;fontSize=14;fontFamily=Helvetica;html=1;rounded=0;shadow=0;comic=0;labelBackgroundColor=none;strokeWidth=1;">
      <mxGeometry x="2097" y="2185" width="254" height="142" as="geometry" />
    </mxCell>
    <mxCell id="node36" parent="1" vertex="1" value="&lt;p style=&quot;margin:0px;margin-top:4px;text-align:center;&quot;&gt;&lt;b&gt;UserService&lt;/b&gt;&lt;/p&gt;&lt;hr size=&quot;1&quot;/&gt;&lt;p style=&quot;margin:0 0 0 4px;line-height:1.6;&quot;&gt;+ UserService(): &lt;/p&gt;&lt;hr size=&quot;1&quot;/&gt;&lt;p style=&quot;margin:0 0 0 4px;line-height:1.6;&quot;&gt;+ isExistingUser(String): boolean&lt;br/&gt;+ registerUser(SignUpDTO): boolean&lt;br/&gt;+ validateUser(String, String): LoginResponseDTO&lt;/p&gt;" style="verticalAlign=top;align=left;overflow=fill;fontSize=14;fontFamily=Helvetica;html=1;rounded=0;shadow=0;comic=0;labelBackgroundColor=none;strokeWidth=1;">
      <mxGeometry x="1951" y="3225" width="346" height="142" as="geometry" />
    </mxCell>
    <mxCell id="node15" parent="1" vertex="1" value="&lt;p style=&quot;margin:0px;margin-top:4px;text-align:center;&quot;&gt;&lt;b&gt;ValidationResultDTO&lt;/b&gt;&lt;/p&gt;&lt;hr size=&quot;1&quot;/&gt;&lt;p style=&quot;margin:0 0 0 4px;line-height:1.6;&quot;&gt;+ ValidationResultDTO(boolean, String, String): &lt;/p&gt;&lt;hr size=&quot;1&quot;/&gt;&lt;p style=&quot;margin:0 0 0 4px;line-height:1.6;&quot;&gt;- isValid: boolean&lt;br/&gt;- message: String&lt;br/&gt;- error: String&lt;/p&gt;&lt;hr size=&quot;1&quot;/&gt;&lt;p style=&quot;margin:0 0 0 4px;line-height:1.6;&quot;&gt;+ toString(): String&lt;/p&gt;&lt;hr size=&quot;1&quot;/&gt;&lt;p style=&quot;margin:0 0 0 4px;line-height:1.6;&quot;&gt; isValid: boolean&lt;br/&gt; message: String&lt;br/&gt; error: String&lt;/p&gt;" style="verticalAlign=top;align=left;overflow=fill;fontSize=14;fontFamily=Helvetica;html=1;rounded=0;shadow=0;comic=0;labelBackgroundColor=none;strokeWidth=1;">
      <mxGeometry x="1559" y="2690" width="331" height="252" as="geometry" />
    </mxCell>
    <mxCell id="node5" parent="1" vertex="1" value="&lt;p style=&quot;margin:0px;margin-top:4px;text-align:center;&quot;&gt;&lt;b&gt;Vehicle&lt;/b&gt;&lt;/p&gt;&lt;hr size=&quot;1&quot;/&gt;&lt;p style=&quot;margin:0 0 0 4px;line-height:1.6;&quot;&gt;+ Vehicle(): &lt;br/&gt;+ Vehicle(UUID, String, String, VehicleStatus, UUID, String, String, String, String): &lt;/p&gt;&lt;hr size=&quot;1&quot;/&gt;&lt;p style=&quot;margin:0 0 0 4px;line-height:1.6;&quot;&gt;- vehicle_id: UUID&lt;br/&gt;- driver_contact: String&lt;br/&gt;- driver_nic: String&lt;br/&gt;- driver_email: String&lt;br/&gt;- driver_id: UUID&lt;br/&gt;- vehicle_number: String&lt;br/&gt;- vehicle_type: String&lt;br/&gt;- driver_name: String&lt;br/&gt;- status: VehicleStatus&lt;/p&gt;&lt;hr size=&quot;1&quot;/&gt;&lt;p style=&quot;margin:0 0 0 4px;line-height:1.6;&quot;&gt;+ toString(): String&lt;/p&gt;&lt;hr size=&quot;1&quot;/&gt;&lt;p style=&quot;margin:0 0 0 4px;line-height:1.6;&quot;&gt; status: VehicleStatus&lt;br/&gt; driver_id: UUID&lt;br/&gt; vehicle_number: String&lt;br/&gt; driver_email: String&lt;br/&gt; vehicle_type: String&lt;br/&gt; driver_name: String&lt;br/&gt; vehicle_id: UUID&lt;br/&gt; driver_nic: String&lt;br/&gt; driver_contact: String&lt;/p&gt;" style="verticalAlign=top;align=left;overflow=fill;fontSize=14;fontFamily=Helvetica;html=1;rounded=0;shadow=0;comic=0;labelBackgroundColor=none;strokeWidth=1;">
      <mxGeometry x="323" y="274" width="402" height="564" as="geometry" />
    </mxCell>
    <mxCell id="node22" parent="1" vertex="1" value="&lt;p style=&quot;margin:0px;margin-top:4px;text-align:center;&quot;&gt;&lt;b&gt;VehicleController&lt;/b&gt;&lt;/p&gt;&lt;hr size=&quot;1&quot;/&gt;&lt;p style=&quot;margin:0 0 0 4px;line-height:1.6;&quot;&gt;+ VehicleController(): &lt;/p&gt;&lt;hr size=&quot;1&quot;/&gt;&lt;p style=&quot;margin:0 0 0 4px;line-height:1.6;&quot;&gt;+ doPut(HttpServletRequest, HttpServletResponse): void&lt;br/&gt;+ validateVehicle(VehicleDTO): ValidationResultDTO&lt;br/&gt;- validateVehicleUpdate(VehicleDTO): ValidationResultDTO&lt;br/&gt;- isValidPhoneNumber(String): boolean&lt;br/&gt;+ doPost(HttpServletRequest, HttpServletResponse): void&lt;br/&gt;+ doDelete(HttpServletRequest, HttpServletResponse): void&lt;br/&gt;- isValidNIC(String): boolean&lt;br/&gt;+ doGet(HttpServletRequest, HttpServletResponse): void&lt;br/&gt;- isValidEmail(String): boolean&lt;/p&gt;" style="verticalAlign=top;align=left;overflow=fill;fontSize=14;fontFamily=Helvetica;html=1;rounded=0;shadow=0;comic=0;labelBackgroundColor=none;strokeWidth=1;">
      <mxGeometry x="142" y="3993" width="404" height="286" as="geometry" />
    </mxCell>
    <mxCell id="node1" parent="1" vertex="1" value="&lt;p style=&quot;margin:0px;margin-top:4px;text-align:center;&quot;&gt;&lt;b&gt;VehicleControllerTest&lt;/b&gt;&lt;/p&gt;&lt;hr size=&quot;1&quot;/&gt;&lt;p style=&quot;margin:0 0 0 4px;line-height:1.6;&quot;&gt;+ VehicleControllerTest(): &lt;/p&gt;&lt;hr size=&quot;1&quot;/&gt;&lt;p style=&quot;margin:0 0 0 4px;line-height:1.6;&quot;&gt;~ testDoGetValid(): void&lt;br/&gt;~ testDoDeleteUnauthorized(): void&lt;br/&gt;~ testDoDeleteValid(): void&lt;br/&gt;~ testDoPutValid(): void&lt;br/&gt;~ testDoPostInvalid(): void&lt;br/&gt;~ testDoPostUnauthorized(): void&lt;br/&gt;~ setUp(): void&lt;br/&gt;~ testDoPostValid(): void&lt;br/&gt;~ testDoGetUnauthorized(): void&lt;br/&gt;~ testDoPutUnauthorized(): void&lt;/p&gt;" style="verticalAlign=top;align=left;overflow=fill;fontSize=14;fontFamily=Helvetica;html=1;rounded=0;shadow=0;comic=0;labelBackgroundColor=none;strokeWidth=1;">
      <mxGeometry x="-103" y="4421" width="255" height="310" as="geometry" />
    </mxCell>
    <mxCell id="node27" parent="1" vertex="1" value="&lt;p style=&quot;margin:0px;margin-top:4px;text-align:center;&quot;&gt;&lt;b&gt;VehicleDTO&lt;/b&gt;&lt;/p&gt;&lt;hr size=&quot;1&quot;/&gt;&lt;p style=&quot;margin:0 0 0 4px;line-height:1.6;&quot;&gt;+ VehicleDTO(): &lt;br/&gt;+ VehicleDTO(UUID, String, VehicleTypes, VehicleStatus, UUID, String, String, String, String, Object): &lt;br/&gt;+ VehicleDTO(UUID, String, VehicleTypes, VehicleStatus, UUID, String, String, String, String): &lt;/p&gt;&lt;hr size=&quot;1&quot;/&gt;&lt;p style=&quot;margin:0 0 0 4px;line-height:1.6;&quot;&gt;- vehicle_type: VehicleTypes&lt;br/&gt;- driver_name: String&lt;br/&gt;- driver_contact: String&lt;br/&gt;- vehicle_id: UUID&lt;br/&gt;- driver_email: String&lt;br/&gt;- status: VehicleStatus&lt;br/&gt;- vehicle_number: String&lt;br/&gt;- driver_id: UUID&lt;br/&gt;- driver_nic: String&lt;/p&gt;&lt;hr size=&quot;1&quot;/&gt;&lt;p style=&quot;margin:0 0 0 4px;line-height:1.6;&quot;&gt;+ toString(): String&lt;/p&gt;&lt;hr size=&quot;1&quot;/&gt;&lt;p style=&quot;margin:0 0 0 4px;line-height:1.6;&quot;&gt; status: VehicleStatus&lt;br/&gt; driver_id: UUID&lt;br/&gt; vehicle_number: String&lt;br/&gt; driver_email: String&lt;br/&gt; driver_name: String&lt;br/&gt; vehicle_id: UUID&lt;br/&gt; driver_nic: String&lt;br/&gt; driver_contact: String&lt;br/&gt; vehicle_type: VehicleTypes&lt;/p&gt;" style="verticalAlign=top;align=left;overflow=fill;fontSize=14;fontFamily=Helvetica;html=1;rounded=0;shadow=0;comic=0;labelBackgroundColor=none;strokeWidth=1;">
      <mxGeometry x="-120" y="862" width="409" height="588" as="geometry" />
    </mxCell>
    <mxCell id="node9" parent="1" vertex="1" value="&lt;p style=&quot;margin:0px;margin-top:4px;text-align:center;&quot;&gt;&lt;b&gt;VehicleRepo&lt;/b&gt;&lt;/p&gt;&lt;hr size=&quot;1&quot;/&gt;&lt;p style=&quot;margin:0 0 0 4px;line-height:1.6;&quot;&gt;+ VehicleRepo(): &lt;/p&gt;&lt;hr size=&quot;1&quot;/&gt;&lt;p style=&quot;margin:0 0 0 4px;line-height:1.6;&quot;&gt;+ addVehicle(VehicleDTO): boolean&lt;br/&gt;+ deleteVehicle(UUID): boolean&lt;br/&gt;- getVehicleById(UUID): VehicleDTO?&lt;br/&gt;+ getVehicleIdByType(VehicleTypes): UUID&lt;br/&gt;+ updateVehicle(VehicleDTO): boolean&lt;/p&gt;&lt;hr size=&quot;1&quot;/&gt;&lt;p style=&quot;margin:0 0 0 4px;line-height:1.6;&quot;&gt; vehicles: Vehicle[]&lt;/p&gt;" style="verticalAlign=top;align=left;overflow=fill;fontSize=14;fontFamily=Helvetica;html=1;rounded=0;shadow=0;comic=0;labelBackgroundColor=none;strokeWidth=1;">
      <mxGeometry x="414" y="2146" width="300" height="221" as="geometry" />
    </mxCell>
    <mxCell id="node12" parent="1" vertex="1" value="&lt;p style=&quot;margin:0px;margin-top:4px;text-align:center;&quot;&gt;&lt;b&gt;VehicleService&lt;/b&gt;&lt;/p&gt;&lt;hr size=&quot;1&quot;/&gt;&lt;p style=&quot;margin:0 0 0 4px;line-height:1.6;&quot;&gt;+ VehicleService(): &lt;/p&gt;&lt;hr size=&quot;1&quot;/&gt;&lt;p style=&quot;margin:0 0 0 4px;line-height:1.6;&quot;&gt;+ addVehicle(VehicleDTO): ResultDTO&amp;lt;Boolean&amp;gt;&lt;br/&gt;+ updateVehicle(VehicleDTO): ResultDTO&amp;lt;Boolean&amp;gt;&lt;br/&gt;+ deleteVehicle(UUID): ResultDTO&amp;lt;Boolean&amp;gt;&lt;/p&gt;&lt;hr size=&quot;1&quot;/&gt;&lt;p style=&quot;margin:0 0 0 4px;line-height:1.6;&quot;&gt; vehicles: VehicleDTO[]&lt;/p&gt;" style="verticalAlign=top;align=left;overflow=fill;fontSize=14;fontFamily=Helvetica;html=1;rounded=0;shadow=0;comic=0;labelBackgroundColor=none;strokeWidth=1;">
      <mxGeometry x="385" y="3210" width="358" height="173" as="geometry" />
    </mxCell>
    <mxCell id="node14" parent="1" vertex="1" value="&lt;p style=&quot;margin:0px;margin-top:4px;text-align:center;&quot;&gt;&lt;i&gt;&amp;lt;&amp;lt;enumeration&amp;gt;&amp;gt;&lt;/i&gt;&lt;br/&gt;&lt;b&gt;VehicleStatus&lt;/b&gt;&lt;/p&gt;&lt;hr size=&quot;1&quot;/&gt;&lt;p style=&quot;margin:0 0 0 4px;line-height:1.6;&quot;&gt;+ VehicleStatus(): &lt;/p&gt;&lt;hr size=&quot;1&quot;/&gt;&lt;p style=&quot;margin:0 0 0 4px;line-height:1.6;&quot;&gt;+ values(): VehicleStatus[]&lt;br/&gt;+ valueOf(String): VehicleStatus&lt;/p&gt;" style="verticalAlign=top;align=left;overflow=fill;fontSize=14;fontFamily=Helvetica;html=1;rounded=0;shadow=0;comic=0;labelBackgroundColor=none;strokeWidth=1;">
      <mxGeometry x="409" y="17" width="231" height="148" as="geometry" />
    </mxCell>
    <mxCell id="node6" parent="1" vertex="1" value="&lt;p style=&quot;margin:0px;margin-top:4px;text-align:center;&quot;&gt;&lt;i&gt;&amp;lt;&amp;lt;enumeration&amp;gt;&amp;gt;&lt;/i&gt;&lt;br/&gt;&lt;b&gt;VehicleTypes&lt;/b&gt;&lt;/p&gt;&lt;hr size=&quot;1&quot;/&gt;&lt;p style=&quot;margin:0 0 0 4px;line-height:1.6;&quot;&gt;- VehicleTypes(String): &lt;/p&gt;&lt;hr size=&quot;1&quot;/&gt;&lt;p style=&quot;margin:0 0 0 4px;line-height:1.6;&quot;&gt;- displayName: String&lt;/p&gt;&lt;hr size=&quot;1&quot;/&gt;&lt;p style=&quot;margin:0 0 0 4px;line-height:1.6;&quot;&gt;+ valueOf(String): VehicleTypes&lt;br/&gt;+ values(): VehicleTypes[]&lt;/p&gt;&lt;hr size=&quot;1&quot;/&gt;&lt;p style=&quot;margin:0 0 0 4px;line-height:1.6;&quot;&gt; displayName: String&lt;/p&gt;" style="verticalAlign=top;align=left;overflow=fill;fontSize=14;fontFamily=Helvetica;html=1;rounded=0;shadow=0;comic=0;labelBackgroundColor=none;strokeWidth=1;">
      <mxGeometry x="-31" y="-14" width="230" height="180" as="geometry" />
    </mxCell>
    <mxCell id="node13" parent="1" vertex="1" value="&lt;p style=&quot;margin:0px;margin-top:4px;text-align:center;&quot;&gt;&lt;i&gt;&amp;lt;&amp;lt;enumeration&amp;gt;&amp;gt;&lt;/i&gt;&lt;br/&gt;&lt;b&gt;VehicleTypesSeatingCapacity&lt;/b&gt;&lt;/p&gt;&lt;hr size=&quot;1&quot;/&gt;&lt;p style=&quot;margin:0 0 0 4px;line-height:1.6;&quot;&gt;- VehicleTypesSeatingCapacity(int): &lt;/p&gt;&lt;hr size=&quot;1&quot;/&gt;&lt;p style=&quot;margin:0 0 0 4px;line-height:1.6;&quot;&gt;- seatingCapacity: int&lt;/p&gt;&lt;hr size=&quot;1&quot;/&gt;&lt;p style=&quot;margin:0 0 0 4px;line-height:1.6;&quot;&gt;+ values(): VehicleTypesSeatingCapacity[]&lt;br/&gt;+ valueOf(String): VehicleTypesSeatingCapacity&lt;/p&gt;&lt;hr size=&quot;1&quot;/&gt;&lt;p style=&quot;margin:0 0 0 4px;line-height:1.6;&quot;&gt; seatingCapacity: int&lt;/p&gt;" style="verticalAlign=top;align=left;overflow=fill;fontSize=14;fontFamily=Helvetica;html=1;rounded=0;shadow=0;comic=0;labelBackgroundColor=none;strokeWidth=1;">
      <mxGeometry x="539" y="5106" width="331" height="180" as="geometry" />
    </mxCell>
    <mxCell id="edge67" edge="1" value="" parent="1" source="node33" target="node26" style="html=1;rounded=1;edgeStyle=orthogonalEdgeStyle;dashed=1;startArrow=none;endArrow=openThin;endSize=12;strokeColor=#595959;exitX=0.750;exitY=0.000;exitDx=0;exitDy=0;entryX=0.167;entryY=0.000;entryDx=0;entryDy=0;">
      <mxGeometry width="50" height="50" relative="1" as="geometry">
        <Array as="points">
          <mxPoint x="1279" y="4456" />
          <mxPoint x="1284" y="4456" />
          <mxPoint x="1284" y="4156" />
          <mxPoint x="1044" y="4156" />
          <mxPoint x="1044" y="3996" />
          <mxPoint x="695" y="3996" />
        </Array>
      </mxGeometry>
    </mxCell>
    <mxCell id="label404" parent="edge67" vertex="1" connectable="0" value="«create»" style="edgeLabel;resizable=0;html=1;align=left;verticalAlign=top;strokeColor=default;">
      <mxGeometry x="1199" y="4136" as="geometry" />
    </mxCell>
    <mxCell id="edge68" edge="1" value="" parent="1" source="node33" target="node26" style="html=1;rounded=1;edgeStyle=orthogonalEdgeStyle;dashed=0;startArrow=diamondThinstartSize=12;endArrow=openThin;endSize=12;strokeColor=#595959;exitX=0.250;exitY=0.000;exitDx=0;exitDy=0;entryX=0.500;entryY=0.000;entryDx=0;entryDy=0;">
      <mxGeometry width="50" height="50" relative="1" as="geometry">
        <Array as="points">
          <mxPoint x="1010" y="4456" />
          <mxPoint x="1004" y="4456" />
          <mxPoint x="1004" y="4416" />
          <mxPoint x="604" y="4416" />
          <mxPoint x="604" y="4016" />
          <mxPoint x="824" y="4016" />
        </Array>
      </mxGeometry>
    </mxCell>
    <mxCell id="label408" parent="edge68" vertex="1" connectable="0" value="1" style="edgeLabel;resizable=0;html=1;align=left;verticalAlign=top;strokeColor=default;">
      <mxGeometry x="899" y="4396" as="geometry" />
    </mxCell>
    <mxCell id="label412" parent="edge68" vertex="1" connectable="0" value="1" style="edgeLabel;resizable=0;html=1;align=left;verticalAlign=top;strokeColor=default;">
      <mxGeometry x="799" y="4396" as="geometry" />
    </mxCell>
    <mxCell id="label413" parent="edge68" vertex="1" connectable="0" value="bookingService" style="edgeLabel;resizable=0;html=1;align=left;verticalAlign=top;strokeColor=default;">
      <mxGeometry x="604" y="4306" as="geometry" />
    </mxCell>
    <mxCell id="edge16" edge="1" value="" parent="1" source="node33" target="node32" style="html=1;rounded=1;edgeStyle=orthogonalEdgeStyle;dashed=0;startArrow=diamondThinstartSize=12;endArrow=openThin;endSize=12;strokeColor=#595959;exitX=0.250;exitY=0.000;exitDx=0;exitDy=0;entryX=0.250;entryY=1.000;entryDx=0;entryDy=0;">
      <mxGeometry width="50" height="50" relative="1" as="geometry">
        <Array as="points">
          <mxPoint x="1010" y="4456" />
          <mxPoint x="1004" y="4456" />
          <mxPoint x="1004" y="4316" />
          <mxPoint x="1084" y="4316" />
          <mxPoint x="1084" y="4116" />
          <mxPoint x="1164" y="4116" />
          <mxPoint x="1164" y="3396" />
          <mxPoint x="1350" y="3396" />
        </Array>
      </mxGeometry>
    </mxCell>
    <mxCell id="label96" parent="edge16" vertex="1" connectable="0" value="1" style="edgeLabel;resizable=0;html=1;align=left;verticalAlign=top;strokeColor=default;">
      <mxGeometry x="993" y="4376" as="geometry" />
    </mxCell>
    <mxCell id="label100" parent="edge16" vertex="1" connectable="0" value="1" style="edgeLabel;resizable=0;html=1;align=left;verticalAlign=top;strokeColor=default;">
      <mxGeometry x="1159" y="3376" as="geometry" />
    </mxCell>
    <mxCell id="label101" parent="edge16" vertex="1" connectable="0" value="sendResponse" style="edgeLabel;resizable=0;html=1;align=left;verticalAlign=top;strokeColor=default;">
      <mxGeometry x="1119" y="3396" as="geometry" />
    </mxCell>
    <mxCell id="edge60" edge="1" value="" parent="1" source="node33" target="node32" style="html=1;rounded=1;edgeStyle=orthogonalEdgeStyle;dashed=1;startArrow=none;endArrow=openThin;endSize=12;strokeColor=#595959;exitX=0.750;exitY=0.000;exitDx=0;exitDy=0;entryX=0.750;entryY=1.000;entryDx=0;entryDy=0;">
      <mxGeometry width="50" height="50" relative="1" as="geometry">
        <Array as="points">
          <mxPoint x="1279" y="4456" />
          <mxPoint x="1284" y="4456" />
          <mxPoint x="1284" y="3376" />
          <mxPoint x="1579" y="3376" />
        </Array>
      </mxGeometry>
    </mxCell>
    <mxCell id="label362" parent="edge60" vertex="1" connectable="0" value="«create»" style="edgeLabel;resizable=0;html=1;align=left;verticalAlign=top;strokeColor=default;">
      <mxGeometry x="1234" y="4086" as="geometry" />
    </mxCell>
    <mxCell id="edge56" edge="1" value="" parent="1" source="node33" target="node15" style="html=1;rounded=1;edgeStyle=orthogonalEdgeStyle;dashed=1;startArrow=none;endArrow=openThin;endSize=12;strokeColor=#595959;exitX=0.750;exitY=0.000;exitDx=0;exitDy=0;entryX=0.500;entryY=1.000;entryDx=0;entryDy=0;">
      <mxGeometry width="50" height="50" relative="1" as="geometry">
        <Array as="points">
          <mxPoint x="1279" y="4456" />
          <mxPoint x="1284" y="4456" />
          <mxPoint x="1284" y="4156" />
          <mxPoint x="1324" y="4156" />
          <mxPoint x="1324" y="3456" />
          <mxPoint x="1704" y="3456" />
          <mxPoint x="1704" y="3376" />
          <mxPoint x="1724" y="3376" />
        </Array>
      </mxGeometry>
    </mxCell>
    <mxCell id="label338" parent="edge56" vertex="1" connectable="0" value="«create»" style="edgeLabel;resizable=0;html=1;align=left;verticalAlign=top;strokeColor=default;">
      <mxGeometry x="1274" y="3621" as="geometry" />
    </mxCell>
    <mxCell id="edge14" edge="1" value="" parent="1" source="node10" target="node33" style="html=1;rounded=1;edgeStyle=orthogonalEdgeStyle;dashed=1;startArrow=none;endArrow=openThin;endSize=12;strokeColor=#595959;exitX=0.250;exitY=0.000;exitDx=0;exitDy=0;entryX=0.750;entryY=0.000;entryDx=0;entryDy=0;">
      <mxGeometry width="50" height="50" relative="1" as="geometry">
        <Array as="points">
          <mxPoint x="840" y="4776" />
          <mxPoint x="844" y="4776" />
          <mxPoint x="844" y="4436" />
          <mxPoint x="1279" y="4436" />
        </Array>
      </mxGeometry>
    </mxCell>
    <mxCell id="label86" parent="edge14" vertex="1" connectable="0" value="«create»" style="edgeLabel;resizable=0;html=1;align=left;verticalAlign=top;strokeColor=default;">
      <mxGeometry x="794" y="4596" as="geometry" />
    </mxCell>
    <mxCell id="edge30" edge="1" value="" parent="1" source="node10" target="node33" style="html=1;rounded=1;edgeStyle=orthogonalEdgeStyle;dashed=0;startArrow=diamondThinstartSize=12;endArrow=openThin;endSize=12;strokeColor=#595959;exitX=0.750;exitY=0.000;exitDx=0;exitDy=0;entryX=0.250;entryY=0.000;entryDx=0;entryDy=0;">
      <mxGeometry width="50" height="50" relative="1" as="geometry">
        <Array as="points">
          <mxPoint x="968" y="4776" />
          <mxPoint x="1444" y="4776" />
          <mxPoint x="1444" y="4416" />
          <mxPoint x="1010" y="4416" />
        </Array>
      </mxGeometry>
    </mxCell>
    <mxCell id="label180" parent="edge30" vertex="1" connectable="0" value="1" style="edgeLabel;resizable=0;html=1;align=left;verticalAlign=top;strokeColor=default;">
      <mxGeometry x="1042" y="4756" as="geometry" />
    </mxCell>
    <mxCell id="label184" parent="edge30" vertex="1" connectable="0" value="1" style="edgeLabel;resizable=0;html=1;align=left;verticalAlign=top;strokeColor=default;">
      <mxGeometry x="1076" y="4396" as="geometry" />
    </mxCell>
    <mxCell id="label185" parent="edge30" vertex="1" connectable="0" value="bookingController" style="edgeLabel;resizable=0;html=1;align=left;verticalAlign=top;strokeColor=default;">
      <mxGeometry x="1444" y="4706" as="geometry" />
    </mxCell>
    <mxCell id="edge13" edge="1" value="" parent="1" source="node10" target="node26" style="html=1;rounded=1;edgeStyle=orthogonalEdgeStyle;dashed=0;startArrow=diamondThinstartSize=12;endArrow=openThin;endSize=12;strokeColor=#595959;exitX=0.750;exitY=0.000;exitDx=0;exitDy=0;entryX=0.500;entryY=0.000;entryDx=0;entryDy=0;">
      <mxGeometry width="50" height="50" relative="1" as="geometry">
        <Array as="points">
          <mxPoint x="968" y="4776" />
          <mxPoint x="1444" y="4776" />
          <mxPoint x="1444" y="4696" />
          <mxPoint x="604" y="4696" />
          <mxPoint x="604" y="4016" />
          <mxPoint x="824" y="4016" />
        </Array>
      </mxGeometry>
    </mxCell>
    <mxCell id="label78" parent="edge13" vertex="1" connectable="0" value="1" style="edgeLabel;resizable=0;html=1;align=left;verticalAlign=top;strokeColor=default;">
      <mxGeometry x="809" y="4676" as="geometry" />
    </mxCell>
    <mxCell id="label82" parent="edge13" vertex="1" connectable="0" value="1" style="edgeLabel;resizable=0;html=1;align=left;verticalAlign=top;strokeColor=default;">
      <mxGeometry x="654" y="3996" as="geometry" />
    </mxCell>
    <mxCell id="label83" parent="edge13" vertex="1" connectable="0" value="bookingService" style="edgeLabel;resizable=0;html=1;align=left;verticalAlign=top;strokeColor=default;">
      <mxGeometry x="604" y="4346" as="geometry" />
    </mxCell>
    <mxCell id="edge21" edge="1" value="" parent="1" source="node10" target="node32" style="html=1;rounded=1;edgeStyle=orthogonalEdgeStyle;dashed=0;startArrow=diamondThinstartSize=12;endArrow=openThin;endSize=12;strokeColor=#595959;exitX=0.750;exitY=0.000;exitDx=0;exitDy=0;entryX=0.250;entryY=1.000;entryDx=0;entryDy=0;">
      <mxGeometry width="50" height="50" relative="1" as="geometry">
        <Array as="points">
          <mxPoint x="968" y="4776" />
          <mxPoint x="1444" y="4776" />
          <mxPoint x="1444" y="4696" />
          <mxPoint x="1484" y="4696" />
          <mxPoint x="1484" y="4396" />
          <mxPoint x="1164" y="4396" />
          <mxPoint x="1164" y="3396" />
          <mxPoint x="1350" y="3396" />
        </Array>
      </mxGeometry>
    </mxCell>
    <mxCell id="label126" parent="edge21" vertex="1" connectable="0" value="1" style="edgeLabel;resizable=0;html=1;align=left;verticalAlign=top;strokeColor=default;">
      <mxGeometry x="1081" y="4756" as="geometry" />
    </mxCell>
    <mxCell id="label130" parent="edge21" vertex="1" connectable="0" value="1" style="edgeLabel;resizable=0;html=1;align=left;verticalAlign=top;strokeColor=default;">
      <mxGeometry x="1153" y="3636" as="geometry" />
    </mxCell>
    <mxCell id="label131" parent="edge21" vertex="1" connectable="0" value="sendResponse" style="edgeLabel;resizable=0;html=1;align=left;verticalAlign=top;strokeColor=default;">
      <mxGeometry x="1164" y="3636" as="geometry" />
    </mxCell>
    <mxCell id="edge62" edge="1" value="" parent="1" source="node10" target="node4" style="html=1;rounded=1;edgeStyle=orthogonalEdgeStyle;dashed=1;startArrow=none;endArrow=openThin;endSize=12;strokeColor=#595959;exitX=0.250;exitY=0.000;exitDx=0;exitDy=0;entryX=0.500;entryY=1.000;entryDx=0;entryDy=0;">
      <mxGeometry width="50" height="50" relative="1" as="geometry">
        <Array as="points">
          <mxPoint x="840" y="4776" />
          <mxPoint x="844" y="4776" />
          <mxPoint x="844" y="4756" />
          <mxPoint x="-136" y="4756" />
          <mxPoint x="-136" y="4376" />
          <mxPoint x="44" y="4376" />
          <mxPoint x="44" y="3676" />
          <mxPoint x="124" y="3676" />
          <mxPoint x="124" y="3636" />
          <mxPoint x="144" y="3636" />
        </Array>
      </mxGeometry>
    </mxCell>
    <mxCell id="label374" parent="edge62" vertex="1" connectable="0" value="«create»" style="edgeLabel;resizable=0;html=1;align=left;verticalAlign=top;strokeColor=default;">
      <mxGeometry x="-71" y="4356" as="geometry" />
    </mxCell>
    <mxCell id="edge37" edge="1" value="" parent="1" source="node7" target="node17" style="html=1;rounded=1;edgeStyle=orthogonalEdgeStyle;dashed=1;startArrow=none;endArrow=openThin;endSize=12;strokeColor=#595959;exitX=0.250;exitY=0.000;exitDx=0;exitDy=0;entryX=0.500;entryY=1.000;entryDx=0;entryDy=0;">
      <mxGeometry width="50" height="50" relative="1" as="geometry">
        <Array as="points">
          <mxPoint x="909" y="3176" />
          <mxPoint x="904" y="3176" />
          <mxPoint x="904" y="2596" />
          <mxPoint x="1064" y="2596" />
        </Array>
      </mxGeometry>
    </mxCell>
    <mxCell id="label224" parent="edge37" vertex="1" connectable="0" value="«create»" style="edgeLabel;resizable=0;html=1;align=left;verticalAlign=top;strokeColor=default;">
      <mxGeometry x="854" y="2876" as="geometry" />
    </mxCell>
    <mxCell id="edge52" edge="1" value="" parent="1" source="node7" target="node39" style="html=1;rounded=1;edgeStyle=orthogonalEdgeStyle;dashed=1;startArrow=none;endArrow=openThin;endSize=12;strokeColor=#595959;exitX=0.250;exitY=0.000;exitDx=0;exitDy=0;entryX=0.750;entryY=0.000;entryDx=0;entryDy=0;">
      <mxGeometry width="50" height="50" relative="1" as="geometry">
        <Array as="points">
          <mxPoint x="909" y="3176" />
          <mxPoint x="904" y="3176" />
          <mxPoint x="904" y="2616" />
          <mxPoint x="2064" y="2616" />
          <mxPoint x="2064" y="2156" />
          <mxPoint x="2288" y="2156" />
        </Array>
      </mxGeometry>
    </mxCell>
    <mxCell id="label314" parent="edge52" vertex="1" connectable="0" value="«create»" style="edgeLabel;resizable=0;html=1;align=left;verticalAlign=top;strokeColor=default;">
      <mxGeometry x="1459" y="2596" as="geometry" />
    </mxCell>
    <mxCell id="edge54" edge="1" value="" parent="1" source="node7" target="node39" style="html=1;rounded=1;edgeStyle=orthogonalEdgeStyle;dashed=0;startArrow=diamondThinstartSize=12;endArrow=openThin;endSize=12;strokeColor=#595959;exitX=0.750;exitY=0.000;exitDx=0;exitDy=0;entryX=0.500;entryY=1.000;entryDx=0;entryDy=0;">
      <mxGeometry width="50" height="50" relative="1" as="geometry">
        <Array as="points">
          <mxPoint x="1059" y="3176" />
          <mxPoint x="1064" y="3176" />
          <mxPoint x="1064" y="2656" />
          <mxPoint x="2224" y="2656" />
        </Array>
      </mxGeometry>
    </mxCell>
    <mxCell id="label324" parent="edge54" vertex="1" connectable="0" value="1" style="edgeLabel;resizable=0;html=1;align=left;verticalAlign=top;strokeColor=default;">
      <mxGeometry x="1053" y="2819" as="geometry" />
    </mxCell>
    <mxCell id="label328" parent="edge54" vertex="1" connectable="0" value="1" style="edgeLabel;resizable=0;html=1;align=left;verticalAlign=top;strokeColor=default;">
      <mxGeometry x="2213" y="2372" as="geometry" />
    </mxCell>
    <mxCell id="label329" parent="edge54" vertex="1" connectable="0" value="userRepo" style="edgeLabel;resizable=0;html=1;align=left;verticalAlign=top;strokeColor=default;">
      <mxGeometry x="2224" y="2372" as="geometry" />
    </mxCell>
    <mxCell id="edge45" edge="1" value="" parent="1" source="node7" target="node9" style="html=1;rounded=1;edgeStyle=orthogonalEdgeStyle;dashed=0;startArrow=diamondThinstartSize=12;endArrow=openThin;endSize=12;strokeColor=#595959;exitX=0.750;exitY=0.000;exitDx=0;exitDy=0;entryX=0.500;entryY=1.000;entryDx=0;entryDy=0;">
      <mxGeometry width="50" height="50" relative="1" as="geometry">
        <Array as="points">
          <mxPoint x="1059" y="3176" />
          <mxPoint x="1064" y="3176" />
          <mxPoint x="1064" y="2636" />
          <mxPoint x="564" y="2636" />
        </Array>
      </mxGeometry>
    </mxCell>
    <mxCell id="label270" parent="edge45" vertex="1" connectable="0" value="1" style="edgeLabel;resizable=0;html=1;align=left;verticalAlign=top;strokeColor=default;">
      <mxGeometry x="1053" y="3166" as="geometry" />
    </mxCell>
    <mxCell id="label274" parent="edge45" vertex="1" connectable="0" value="1" style="edgeLabel;resizable=0;html=1;align=left;verticalAlign=top;strokeColor=default;">
      <mxGeometry x="553" y="2401" as="geometry" />
    </mxCell>
    <mxCell id="label275" parent="edge45" vertex="1" connectable="0" value="vehicleRepo" style="edgeLabel;resizable=0;html=1;align=left;verticalAlign=top;strokeColor=default;">
      <mxGeometry x="564" y="2401" as="geometry" />
    </mxCell>
    <mxCell id="edge65" edge="1" value="" parent="1" source="node7" target="node9" style="html=1;rounded=1;edgeStyle=orthogonalEdgeStyle;dashed=1;startArrow=none;endArrow=openThin;endSize=12;strokeColor=#595959;exitX=0.250;exitY=0.000;exitDx=0;exitDy=0;entryX=0.250;entryY=0.000;entryDx=0;entryDy=0;">
      <mxGeometry width="50" height="50" relative="1" as="geometry">
        <Array as="points">
          <mxPoint x="909" y="3176" />
          <mxPoint x="904" y="3176" />
          <mxPoint x="904" y="2656" />
          <mxPoint x="384" y="2656" />
          <mxPoint x="384" y="2096" />
          <mxPoint x="489" y="2096" />
        </Array>
      </mxGeometry>
    </mxCell>
    <mxCell id="label392" parent="edge65" vertex="1" connectable="0" value="«create»" style="edgeLabel;resizable=0;html=1;align=left;verticalAlign=top;strokeColor=default;">
      <mxGeometry x="489" y="2636" as="geometry" />
    </mxCell>
    <mxCell id="edge15" edge="1" value="" parent="1" source="node26" target="node7" style="html=1;rounded=1;edgeStyle=orthogonalEdgeStyle;dashed=0;startArrow=diamondThinstartSize=12;endArrow=openThin;endSize=12;strokeColor=#595959;exitX=0.500;exitY=0.000;exitDx=0;exitDy=0;entryX=0.750;entryY=0.000;entryDx=0;entryDy=0;">
      <mxGeometry width="50" height="50" relative="1" as="geometry">
        <Array as="points">
          <mxPoint x="824" y="3836" />
          <mxPoint x="1164" y="3836" />
          <mxPoint x="1164" y="3156" />
          <mxPoint x="1059" y="3156" />
        </Array>
      </mxGeometry>
    </mxCell>
    <mxCell id="label90" parent="edge15" vertex="1" connectable="0" value="1" style="edgeLabel;resizable=0;html=1;align=left;verticalAlign=top;strokeColor=default;">
      <mxGeometry x="813" y="3935" as="geometry" />
    </mxCell>
    <mxCell id="label94" parent="edge15" vertex="1" connectable="0" value="1" style="edgeLabel;resizable=0;html=1;align=left;verticalAlign=top;strokeColor=default;">
      <mxGeometry x="1153" y="3259" as="geometry" />
    </mxCell>
    <mxCell id="label95" parent="edge15" vertex="1" connectable="0" value="bookingRepo" style="edgeLabel;resizable=0;html=1;align=left;verticalAlign=top;strokeColor=default;">
      <mxGeometry x="1059" y="3188" as="geometry" />
    </mxCell>
    <mxCell id="edge36" edge="1" value="" parent="1" source="node26" target="node7" style="html=1;rounded=1;edgeStyle=orthogonalEdgeStyle;dashed=1;startArrow=none;endArrow=openThin;endSize=12;strokeColor=#595959;exitX=0.167;exitY=0.000;exitDx=0;exitDy=0;entryX=0.250;entryY=0.000;entryDx=0;entryDy=0;">
      <mxGeometry width="50" height="50" relative="1" as="geometry">
        <Array as="points">
          <mxPoint x="695" y="3876" />
          <mxPoint x="164" y="3876" />
          <mxPoint x="164" y="3656" />
          <mxPoint x="804" y="3656" />
          <mxPoint x="804" y="3156" />
          <mxPoint x="909" y="3156" />
        </Array>
      </mxGeometry>
    </mxCell>
    <mxCell id="label218" parent="edge36" vertex="1" connectable="0" value="«create»" style="edgeLabel;resizable=0;html=1;align=left;verticalAlign=top;strokeColor=default;">
      <mxGeometry x="459" y="3636" as="geometry" />
    </mxCell>
    <mxCell id="edge6" edge="1" value="" parent="1" source="node26" target="node11" style="html=1;rounded=1;edgeStyle=orthogonalEdgeStyle;dashed=1;startArrow=none;endArrow=block;endSize=12;strokeColor=#008200;exitX=0.833;exitY=0.000;exitDx=0;exitDy=0;entryX=0.500;entryY=1.000;entryDx=0;entryDy=0;">
      <mxGeometry width="50" height="50" relative="1" as="geometry">
        <Array as="points">
          <mxPoint x="953" y="3876" />
          <mxPoint x="1204" y="3876" />
          <mxPoint x="1204" y="3216" />
          <mxPoint x="1284" y="3216" />
        </Array>
      </mxGeometry>
    </mxCell>
    <mxCell id="edge61" edge="1" value="" parent="1" source="node26" target="node25" style="html=1;rounded=1;edgeStyle=orthogonalEdgeStyle;dashed=1;startArrow=none;endArrow=openThin;endSize=12;strokeColor=#595959;exitX=0.167;exitY=0.000;exitDx=0;exitDy=0;entryX=0.500;entryY=1.000;entryDx=0;entryDy=0;">
      <mxGeometry width="50" height="50" relative="1" as="geometry">
        <Array as="points">
          <mxPoint x="695" y="3876" />
          <mxPoint x="164" y="3876" />
          <mxPoint x="164" y="3656" />
          <mxPoint x="-76" y="3656" />
          <mxPoint x="-76" y="2436" />
          <mxPoint x="-36" y="2436" />
        </Array>
      </mxGeometry>
    </mxCell>
    <mxCell id="label368" parent="edge61" vertex="1" connectable="0" value="«create»" style="edgeLabel;resizable=0;html=1;align=left;verticalAlign=top;strokeColor=default;">
      <mxGeometry x="19" y="3636" as="geometry" />
    </mxCell>
    <mxCell id="edge59" edge="1" value="" parent="1" source="node26" target="node4" style="html=1;rounded=1;edgeStyle=orthogonalEdgeStyle;dashed=1;startArrow=none;endArrow=openThin;endSize=12;strokeColor=#595959;exitX=0.167;exitY=0.000;exitDx=0;exitDy=0;entryX=0.500;entryY=1.000;entryDx=0;entryDy=0;">
      <mxGeometry width="50" height="50" relative="1" as="geometry">
        <Array as="points">
          <mxPoint x="695" y="3876" />
          <mxPoint x="164" y="3876" />
          <mxPoint x="164" y="3856" />
          <mxPoint x="124" y="3856" />
          <mxPoint x="124" y="3636" />
          <mxPoint x="144" y="3636" />
        </Array>
      </mxGeometry>
    </mxCell>
    <mxCell id="label356" parent="edge59" vertex="1" connectable="0" value="«create»" style="edgeLabel;resizable=0;html=1;align=left;verticalAlign=top;strokeColor=default;">
      <mxGeometry x="74" y="3791" as="geometry" />
    </mxCell>
    <mxCell id="edge7" edge="1" value="" parent="1" source="node24" target="node31" style="html=1;rounded=1;edgeStyle=orthogonalEdgeStyle;dashed=0;startArrow=none;endArrow=block;endSize=12;strokeColor=#008200;exitX=0.500;exitY=0.000;exitDx=0;exitDy=0;entryX=0.500;entryY=1.001;entryDx=0;entryDy=0;">
      <mxGeometry width="50" height="50" relative="1" as="geometry">
        <Array as="points" />
      </mxGeometry>
    </mxCell>
    <mxCell id="edge3" edge="1" value="" parent="1" source="node11" target="node23" style="html=1;rounded=1;edgeStyle=orthogonalEdgeStyle;dashed=0;startArrow=none;endArrow=block;endSize=12;strokeColor=#008200;exitX=0.500;exitY=0.000;exitDx=0;exitDy=0;entryX=0.500;entryY=1.001;entryDx=0;entryDy=0;">
      <mxGeometry width="50" height="50" relative="1" as="geometry">
        <Array as="points" />
      </mxGeometry>
    </mxCell>
    <mxCell id="edge10" edge="1" value="" parent="1" source="node3" target="node31" style="html=1;rounded=1;edgeStyle=orthogonalEdgeStyle;dashed=0;startArrow=none;endArrow=block;endSize=12;strokeColor=#008200;exitX=0.500;exitY=0.000;exitDx=0;exitDy=0;entryX=0.500;entryY=1.001;entryDx=0;entryDy=0;">
      <mxGeometry width="50" height="50" relative="1" as="geometry">
        <Array as="points">
          <mxPoint x="1804" y="256" />
          <mxPoint x="744" y="256" />
        </Array>
      </mxGeometry>
    </mxCell>
    <mxCell id="edge0" edge="1" value="" parent="1" source="node18" target="node23" style="html=1;rounded=1;edgeStyle=orthogonalEdgeStyle;dashed=0;startArrow=none;endArrow=block;endSize=12;strokeColor=#008200;exitX=0.500;exitY=0.000;exitDx=0;exitDy=0;entryX=0.500;entryY=1.001;entryDx=0;entryDy=0;">
      <mxGeometry width="50" height="50" relative="1" as="geometry">
        <Array as="points">
          <mxPoint x="1864" y="1636" />
          <mxPoint x="1284" y="1636" />
        </Array>
      </mxGeometry>
    </mxCell>
    <mxCell id="edge4" edge="1" value="" parent="1" source="node21" target="node31" style="html=1;rounded=1;edgeStyle=orthogonalEdgeStyle;dashed=0;startArrow=none;endArrow=block;endSize=12;strokeColor=#008200;exitX=0.500;exitY=0.000;exitDx=0;exitDy=0;entryX=0.500;entryY=1.001;entryDx=0;entryDy=0;">
      <mxGeometry width="50" height="50" relative="1" as="geometry">
        <Array as="points">
          <mxPoint x="924" y="256" />
          <mxPoint x="744" y="256" />
        </Array>
      </mxGeometry>
    </mxCell>
    <mxCell id="edge5" edge="1" value="" parent="1" source="node8" target="node23" style="html=1;rounded=1;edgeStyle=orthogonalEdgeStyle;dashed=0;startArrow=none;endArrow=block;endSize=12;strokeColor=#008200;exitX=0.500;exitY=0.000;exitDx=0;exitDy=0;entryX=0.500;entryY=1.001;entryDx=0;entryDy=0;">
      <mxGeometry width="50" height="50" relative="1" as="geometry">
        <Array as="points">
          <mxPoint x="844" y="1636" />
          <mxPoint x="1284" y="1636" />
        </Array>
      </mxGeometry>
    </mxCell>
    <mxCell id="edge42" edge="1" value="" parent="1" source="node38" target="node36" style="html=1;rounded=1;edgeStyle=orthogonalEdgeStyle;dashed=0;startArrow=diamondThinstartSize=12;endArrow=openThin;endSize=12;strokeColor=#595959;exitX=0.250;exitY=0.000;exitDx=0;exitDy=0;entryX=0.500;entryY=0.000;entryDx=0;entryDy=0;">
      <mxGeometry width="50" height="50" relative="1" as="geometry">
        <Array as="points">
          <mxPoint x="2108" y="3676" />
          <mxPoint x="1924" y="3676" />
          <mxPoint x="1924" y="3196" />
          <mxPoint x="2124" y="3196" />
        </Array>
      </mxGeometry>
    </mxCell>
    <mxCell id="label252" parent="edge42" vertex="1" connectable="0" value="1" style="edgeLabel;resizable=0;html=1;align=left;verticalAlign=top;strokeColor=default;">
      <mxGeometry x="2097" y="3683" as="geometry" />
    </mxCell>
    <mxCell id="label256" parent="edge42" vertex="1" connectable="0" value="1" style="edgeLabel;resizable=0;html=1;align=left;verticalAlign=top;strokeColor=default;">
      <mxGeometry x="2052" y="3176" as="geometry" />
    </mxCell>
    <mxCell id="label257" parent="edge42" vertex="1" connectable="0" value="userService" style="edgeLabel;resizable=0;html=1;align=left;verticalAlign=top;strokeColor=default;">
      <mxGeometry x="1924" y="3426" as="geometry" />
    </mxCell>
    <mxCell id="edge49" edge="1" value="" parent="1" source="node38" target="node36" style="html=1;rounded=1;edgeStyle=orthogonalEdgeStyle;dashed=1;startArrow=none;endArrow=openThin;endSize=12;strokeColor=#595959;exitX=0.750;exitY=0.000;exitDx=0;exitDy=0;entryX=0.833;entryY=0.000;entryDx=0;entryDy=0;">
      <mxGeometry width="50" height="50" relative="1" as="geometry">
        <Array as="points">
          <mxPoint x="2260" y="3676" />
          <mxPoint x="2324" y="3676" />
          <mxPoint x="2324" y="3176" />
          <mxPoint x="2239" y="3176" />
        </Array>
      </mxGeometry>
    </mxCell>
    <mxCell id="label296" parent="edge49" vertex="1" connectable="0" value="«create»" style="edgeLabel;resizable=0;html=1;align=left;verticalAlign=top;strokeColor=default;">
      <mxGeometry x="2274" y="3416" as="geometry" />
    </mxCell>
    <mxCell id="edge46" edge="1" value="" parent="1" source="node30" target="node2" style="html=1;rounded=1;edgeStyle=orthogonalEdgeStyle;dashed=0;startArrow=diamondThinstartSize=12;endArrow=openThin;endSize=12;strokeColor=#595959;exitX=0.500;exitY=0.000;exitDx=0;exitDy=0;entryX=0.500;entryY=1.000;entryDx=0;entryDy=0;">
      <mxGeometry width="50" height="50" relative="1" as="geometry">
        <Array as="points">
          <mxPoint x="2524" y="276" />
          <mxPoint x="2044" y="276" />
        </Array>
      </mxGeometry>
    </mxCell>
    <mxCell id="label276" parent="edge46" vertex="1" connectable="0" value="1" style="edgeLabel;resizable=0;html=1;align=left;verticalAlign=top;strokeColor=default;">
      <mxGeometry x="2513" y="1525" as="geometry" />
    </mxCell>
    <mxCell id="label280" parent="edge46" vertex="1" connectable="0" value="1" style="edgeLabel;resizable=0;html=1;align=left;verticalAlign=top;strokeColor=default;">
      <mxGeometry x="2327" y="256" as="geometry" />
    </mxCell>
    <mxCell id="label281" parent="edge46" vertex="1" connectable="0" value="role" style="edgeLabel;resizable=0;html=1;align=left;verticalAlign=top;strokeColor=default;">
      <mxGeometry x="2044" y="140" as="geometry" />
    </mxCell>
    <mxCell id="edge28" edge="1" value="" parent="1" source="node28" target="node2" style="html=1;rounded=1;edgeStyle=orthogonalEdgeStyle;dashed=0;startArrow=diamondThinstartSize=12;endArrow=openThin;endSize=12;strokeColor=#595959;exitX=0.500;exitY=0.000;exitDx=0;exitDy=0;entryX=0.500;entryY=1.000;entryDx=0;entryDy=0;">
      <mxGeometry width="50" height="50" relative="1" as="geometry">
        <Array as="points">
          <mxPoint x="2284" y="276" />
          <mxPoint x="2044" y="276" />
        </Array>
      </mxGeometry>
    </mxCell>
    <mxCell id="label168" parent="edge28" vertex="1" connectable="0" value="1" style="edgeLabel;resizable=0;html=1;align=left;verticalAlign=top;strokeColor=default;">
      <mxGeometry x="2273" y="285" as="geometry" />
    </mxCell>
    <mxCell id="label172" parent="edge28" vertex="1" connectable="0" value="1" style="edgeLabel;resizable=0;html=1;align=left;verticalAlign=top;strokeColor=default;">
      <mxGeometry x="2111" y="256" as="geometry" />
    </mxCell>
    <mxCell id="label173" parent="edge28" vertex="1" connectable="0" value="role" style="edgeLabel;resizable=0;html=1;align=left;verticalAlign=top;strokeColor=default;">
      <mxGeometry x="2044" y="172" as="geometry" />
    </mxCell>
    <mxCell id="edge18" edge="1" value="" parent="1" source="node20" target="node32" style="html=1;rounded=1;edgeStyle=orthogonalEdgeStyle;dashed=1;startArrow=none;endArrow=openThin;endSize=12;strokeColor=#595959;exitX=0.750;exitY=0.000;exitDx=0;exitDy=0;entryX=0.750;entryY=1.000;entryDx=0;entryDy=0;">
      <mxGeometry width="50" height="50" relative="1" as="geometry">
        <Array as="points">
          <mxPoint x="1710" y="3936" />
          <mxPoint x="1704" y="3936" />
          <mxPoint x="1704" y="3476" />
          <mxPoint x="1284" y="3476" />
          <mxPoint x="1284" y="3376" />
          <mxPoint x="1579" y="3376" />
        </Array>
      </mxGeometry>
    </mxCell>
    <mxCell id="label110" parent="edge18" vertex="1" connectable="0" value="«create»" style="edgeLabel;resizable=0;html=1;align=left;verticalAlign=top;strokeColor=default;">
      <mxGeometry x="1469" y="3456" as="geometry" />
    </mxCell>
    <mxCell id="edge22" edge="1" value="" parent="1" source="node20" target="node32" style="html=1;rounded=1;edgeStyle=orthogonalEdgeStyle;dashed=0;startArrow=diamondThinstartSize=12;endArrow=openThin;endSize=12;strokeColor=#595959;exitX=0.250;exitY=0.000;exitDx=0;exitDy=0;entryX=0.250;entryY=1.000;entryDx=0;entryDy=0;">
      <mxGeometry width="50" height="50" relative="1" as="geometry">
        <Array as="points">
          <mxPoint x="1498" y="3956" />
          <mxPoint x="1504" y="3956" />
          <mxPoint x="1504" y="3816" />
          <mxPoint x="1164" y="3816" />
          <mxPoint x="1164" y="3396" />
          <mxPoint x="1350" y="3396" />
        </Array>
      </mxGeometry>
    </mxCell>
    <mxCell id="label132" parent="edge22" vertex="1" connectable="0" value="1" style="edgeLabel;resizable=0;html=1;align=left;verticalAlign=top;strokeColor=default;">
      <mxGeometry x="1493" y="3946" as="geometry" />
    </mxCell>
    <mxCell id="label136" parent="edge22" vertex="1" connectable="0" value="1" style="edgeLabel;resizable=0;html=1;align=left;verticalAlign=top;strokeColor=default;">
      <mxGeometry x="1414" y="3796" as="geometry" />
    </mxCell>
    <mxCell id="label137" parent="edge22" vertex="1" connectable="0" value="sendResponse" style="edgeLabel;resizable=0;html=1;align=left;verticalAlign=top;strokeColor=default;">
      <mxGeometry x="1504" y="3841" as="geometry" />
    </mxCell>
    <mxCell id="edge29" edge="1" value="" parent="1" source="node20" target="node36" style="html=1;rounded=1;edgeStyle=orthogonalEdgeStyle;dashed=0;startArrow=diamondThinstartSize=12;endArrow=openThin;endSize=12;strokeColor=#595959;exitX=0.250;exitY=0.000;exitDx=0;exitDy=0;entryX=0.500;entryY=0.000;entryDx=0;entryDy=0;">
      <mxGeometry width="50" height="50" relative="1" as="geometry">
        <Array as="points">
          <mxPoint x="1498" y="3956" />
          <mxPoint x="1504" y="3956" />
          <mxPoint x="1504" y="3636" />
          <mxPoint x="1924" y="3636" />
          <mxPoint x="1924" y="3196" />
          <mxPoint x="2124" y="3196" />
        </Array>
      </mxGeometry>
    </mxCell>
    <mxCell id="label174" parent="edge29" vertex="1" connectable="0" value="1" style="edgeLabel;resizable=0;html=1;align=left;verticalAlign=top;strokeColor=default;">
      <mxGeometry x="1493" y="3786" as="geometry" />
    </mxCell>
    <mxCell id="label178" parent="edge29" vertex="1" connectable="0" value="1" style="edgeLabel;resizable=0;html=1;align=left;verticalAlign=top;strokeColor=default;">
      <mxGeometry x="1969" y="3176" as="geometry" />
    </mxCell>
    <mxCell id="label179" parent="edge29" vertex="1" connectable="0" value="userService" style="edgeLabel;resizable=0;html=1;align=left;verticalAlign=top;strokeColor=default;">
      <mxGeometry x="1924" y="3406" as="geometry" />
    </mxCell>
    <mxCell id="edge63" edge="1" value="" parent="1" source="node20" target="node36" style="html=1;rounded=1;edgeStyle=orthogonalEdgeStyle;dashed=1;startArrow=none;endArrow=openThin;endSize=12;strokeColor=#595959;exitX=0.750;exitY=0.000;exitDx=0;exitDy=0;entryX=0.833;entryY=0.000;entryDx=0;entryDy=0;">
      <mxGeometry width="50" height="50" relative="1" as="geometry">
        <Array as="points">
          <mxPoint x="1710" y="3936" />
          <mxPoint x="1704" y="3936" />
          <mxPoint x="1704" y="3656" />
          <mxPoint x="2324" y="3656" />
          <mxPoint x="2324" y="3176" />
          <mxPoint x="2239" y="3176" />
        </Array>
      </mxGeometry>
    </mxCell>
    <mxCell id="label380" parent="edge63" vertex="1" connectable="0" value="«create»" style="edgeLabel;resizable=0;html=1;align=left;verticalAlign=top;strokeColor=default;">
      <mxGeometry x="1989" y="3636" as="geometry" />
    </mxCell>
    <mxCell id="edge31" edge="1" value="" parent="1" source="node20" target="node15" style="html=1;rounded=1;edgeStyle=orthogonalEdgeStyle;dashed=1;startArrow=none;endArrow=openThin;endSize=12;strokeColor=#595959;exitX=0.750;exitY=0.000;exitDx=0;exitDy=0;entryX=0.500;entryY=1.000;entryDx=0;entryDy=0;">
      <mxGeometry width="50" height="50" relative="1" as="geometry">
        <Array as="points">
          <mxPoint x="1710" y="3936" />
          <mxPoint x="1704" y="3936" />
          <mxPoint x="1704" y="3376" />
          <mxPoint x="1724" y="3376" />
        </Array>
      </mxGeometry>
    </mxCell>
    <mxCell id="label188" parent="edge31" vertex="1" connectable="0" value="«create»" style="edgeLabel;resizable=0;html=1;align=left;verticalAlign=top;strokeColor=default;">
      <mxGeometry x="1654" y="3553" as="geometry" />
    </mxCell>
    <mxCell id="edge12" edge="1" value="" parent="1" source="node34" target="node29" style="html=1;rounded=1;edgeStyle=orthogonalEdgeStyle;dashed=1;startArrow=none;endArrow=openThin;endSize=12;strokeColor=#595959;exitX=0.750;exitY=0.000;exitDx=0;exitDy=0;entryX=0.500;entryY=1.000;entryDx=0;entryDy=0;">
      <mxGeometry width="50" height="50" relative="1" as="geometry">
        <Array as="points">
          <mxPoint x="2007" y="4456" />
          <mxPoint x="2004" y="4456" />
        </Array>
      </mxGeometry>
    </mxCell>
    <mxCell id="label74" parent="edge12" vertex="1" connectable="0" value="«create»" style="edgeLabel;resizable=0;html=1;align=left;verticalAlign=top;strokeColor=default;">
      <mxGeometry x="1954" y="4425" as="geometry" />
    </mxCell>
    <mxCell id="edge26" edge="1" value="" parent="1" source="node34" target="node30" style="html=1;rounded=1;edgeStyle=orthogonalEdgeStyle;dashed=1;startArrow=none;endArrow=openThin;endSize=12;strokeColor=#595959;exitX=0.750;exitY=0.000;exitDx=0;exitDy=0;entryX=0.500;entryY=1.000;entryDx=0;entryDy=0;">
      <mxGeometry width="50" height="50" relative="1" as="geometry">
        <Array as="points">
          <mxPoint x="2007" y="4456" />
          <mxPoint x="2004" y="4456" />
          <mxPoint x="2004" y="4356" />
          <mxPoint x="2364" y="4356" />
          <mxPoint x="2364" y="2356" />
          <mxPoint x="2524" y="2356" />
        </Array>
      </mxGeometry>
    </mxCell>
    <mxCell id="label158" parent="edge26" vertex="1" connectable="0" value="«create»" style="edgeLabel;resizable=0;html=1;align=left;verticalAlign=top;strokeColor=default;">
      <mxGeometry x="2159" y="4336" as="geometry" />
    </mxCell>
    <mxCell id="edge38" edge="1" value="" parent="1" source="node34" target="node32" style="html=1;rounded=1;edgeStyle=orthogonalEdgeStyle;dashed=0;startArrow=diamondThinstartSize=12;endArrow=openThin;endSize=12;strokeColor=#595959;exitX=0.250;exitY=0.000;exitDx=0;exitDy=0;entryX=0.250;entryY=1.000;entryDx=0;entryDy=0;">
      <mxGeometry width="50" height="50" relative="1" as="geometry">
        <Array as="points">
          <mxPoint x="1881" y="4456" />
          <mxPoint x="1364" y="4456" />
          <mxPoint x="1364" y="4296" />
          <mxPoint x="1204" y="4296" />
          <mxPoint x="1204" y="4116" />
          <mxPoint x="1164" y="4116" />
          <mxPoint x="1164" y="3396" />
          <mxPoint x="1350" y="3396" />
        </Array>
      </mxGeometry>
    </mxCell>
    <mxCell id="label228" parent="edge38" vertex="1" connectable="0" value="1" style="edgeLabel;resizable=0;html=1;align=left;verticalAlign=top;strokeColor=default;">
      <mxGeometry x="1870" y="4446" as="geometry" />
    </mxCell>
    <mxCell id="label232" parent="edge38" vertex="1" connectable="0" value="1" style="edgeLabel;resizable=0;html=1;align=left;verticalAlign=top;strokeColor=default;">
      <mxGeometry x="1153" y="3566" as="geometry" />
    </mxCell>
    <mxCell id="label233" parent="edge38" vertex="1" connectable="0" value="sendResponse" style="edgeLabel;resizable=0;html=1;align=left;verticalAlign=top;strokeColor=default;">
      <mxGeometry x="1305" y="3396" as="geometry" />
    </mxCell>
    <mxCell id="edge69" edge="1" value="" parent="1" source="node34" target="node16" style="html=1;rounded=1;edgeStyle=orthogonalEdgeStyle;dashed=1;startArrow=none;endArrow=openThin;endSize=12;strokeColor=#595959;exitX=0.750;exitY=0.000;exitDx=0;exitDy=0;entryX=0.500;entryY=1.000;entryDx=0;entryDy=0;">
      <mxGeometry width="50" height="50" relative="1" as="geometry">
        <Array as="points">
          <mxPoint x="2007" y="4456" />
          <mxPoint x="2004" y="4456" />
          <mxPoint x="2004" y="4356" />
          <mxPoint x="2564" y="4356" />
        </Array>
      </mxGeometry>
    </mxCell>
    <mxCell id="label416" parent="edge69" vertex="1" connectable="0" value="«create»" style="edgeLabel;resizable=0;html=1;align=left;verticalAlign=top;strokeColor=default;">
      <mxGeometry x="1954" y="4396" as="geometry" />
    </mxCell>
    <mxCell id="edge24" edge="1" value="" parent="1" source="node34" target="node20" style="html=1;rounded=1;edgeStyle=orthogonalEdgeStyle;dashed=1;startArrow=none;endArrow=openThin;endSize=12;strokeColor=#595959;exitX=0.750;exitY=0.000;exitDx=0;exitDy=0;entryX=0.750;entryY=0.000;entryDx=0;entryDy=0;">
      <mxGeometry width="50" height="50" relative="1" as="geometry">
        <Array as="points">
          <mxPoint x="2007" y="4456" />
          <mxPoint x="2004" y="4456" />
          <mxPoint x="2004" y="4356" />
          <mxPoint x="1844" y="4356" />
          <mxPoint x="1844" y="3956" />
          <mxPoint x="1710" y="3956" />
        </Array>
      </mxGeometry>
    </mxCell>
    <mxCell id="label146" parent="edge24" vertex="1" connectable="0" value="«create»" style="edgeLabel;resizable=0;html=1;align=left;verticalAlign=top;strokeColor=default;">
      <mxGeometry x="1899" y="4336" as="geometry" />
    </mxCell>
    <mxCell id="edge32" edge="1" value="" parent="1" source="node34" target="node20" style="html=1;rounded=1;edgeStyle=orthogonalEdgeStyle;dashed=0;startArrow=diamondThinstartSize=12;endArrow=openThin;endSize=12;strokeColor=#595959;exitX=0.250;exitY=0.000;exitDx=0;exitDy=0;entryX=0.250;entryY=0.000;entryDx=0;entryDy=0;">
      <mxGeometry width="50" height="50" relative="1" as="geometry">
        <Array as="points">
          <mxPoint x="1881" y="4456" />
          <mxPoint x="1364" y="4456" />
          <mxPoint x="1364" y="3936" />
          <mxPoint x="1498" y="3936" />
        </Array>
      </mxGeometry>
    </mxCell>
    <mxCell id="label192" parent="edge32" vertex="1" connectable="0" value="1" style="edgeLabel;resizable=0;html=1;align=left;verticalAlign=top;strokeColor=default;">
      <mxGeometry x="1703" y="4436" as="geometry" />
    </mxCell>
    <mxCell id="label196" parent="edge32" vertex="1" connectable="0" value="1" style="edgeLabel;resizable=0;html=1;align=left;verticalAlign=top;strokeColor=default;">
      <mxGeometry x="1353" y="4099" as="geometry" />
    </mxCell>
    <mxCell id="label197" parent="edge32" vertex="1" connectable="0" value="userController" style="edgeLabel;resizable=0;html=1;align=left;verticalAlign=top;strokeColor=default;">
      <mxGeometry x="1498" y="3968" as="geometry" />
    </mxCell>
    <mxCell id="edge11" edge="1" value="" parent="1" source="node34" target="node36" style="html=1;rounded=1;edgeStyle=orthogonalEdgeStyle;dashed=0;startArrow=diamondThinstartSize=12;endArrow=openThin;endSize=12;strokeColor=#595959;exitX=0.250;exitY=0.000;exitDx=0;exitDy=0;entryX=0.500;entryY=0.000;entryDx=0;entryDy=0;">
      <mxGeometry width="50" height="50" relative="1" as="geometry">
        <Array as="points">
          <mxPoint x="1881" y="4456" />
          <mxPoint x="1364" y="4456" />
          <mxPoint x="1364" y="4296" />
          <mxPoint x="1884" y="4296" />
          <mxPoint x="1884" y="3676" />
          <mxPoint x="1924" y="3676" />
          <mxPoint x="1924" y="3196" />
          <mxPoint x="2124" y="3196" />
        </Array>
      </mxGeometry>
    </mxCell>
    <mxCell id="label66" parent="edge11" vertex="1" connectable="0" value="1" style="edgeLabel;resizable=0;html=1;align=left;verticalAlign=top;strokeColor=default;">
      <mxGeometry x="1746" y="4436" as="geometry" />
    </mxCell>
    <mxCell id="label70" parent="edge11" vertex="1" connectable="0" value="1" style="edgeLabel;resizable=0;html=1;align=left;verticalAlign=top;strokeColor=default;">
      <mxGeometry x="2069" y="3176" as="geometry" />
    </mxCell>
    <mxCell id="label71" parent="edge11" vertex="1" connectable="0" value="userService" style="edgeLabel;resizable=0;html=1;align=left;verticalAlign=top;strokeColor=default;">
      <mxGeometry x="1924" y="3546" as="geometry" />
    </mxCell>
    <mxCell id="edge23" edge="1" value="" parent="1" source="node35" target="node2" style="html=1;rounded=1;edgeStyle=orthogonalEdgeStyle;dashed=0;startArrow=diamondThinstartSize=12;endArrow=openThin;endSize=12;strokeColor=#595959;exitX=0.500;exitY=0.000;exitDx=0;exitDy=0;entryX=0.500;entryY=1.000;entryDx=0;entryDy=0;">
      <mxGeometry width="50" height="50" relative="1" as="geometry">
        <Array as="points" />
      </mxGeometry>
    </mxCell>
    <mxCell id="label138" parent="edge23" vertex="1" connectable="0" value="1" style="edgeLabel;resizable=0;html=1;align=left;verticalAlign=top;strokeColor=default;">
      <mxGeometry x="2033" y="897" as="geometry" />
    </mxCell>
    <mxCell id="label142" parent="edge23" vertex="1" connectable="0" value="1" style="edgeLabel;resizable=0;html=1;align=left;verticalAlign=top;strokeColor=default;">
      <mxGeometry x="2033" y="230" as="geometry" />
    </mxCell>
    <mxCell id="label143" parent="edge23" vertex="1" connectable="0" value="role" style="edgeLabel;resizable=0;html=1;align=left;verticalAlign=top;strokeColor=default;">
      <mxGeometry x="2044" y="230" as="geometry" />
    </mxCell>
    <mxCell id="edge1" edge="1" value="" parent="1" source="node39" target="node3" style="html=1;rounded=1;edgeStyle=orthogonalEdgeStyle;dashed=1;startArrow=none;endArrow=block;endSize=12;strokeColor=#008200;exitX=0.250;exitY=0.000;exitDx=0;exitDy=0;entryX=0.500;entryY=1.000;entryDx=0;entryDy=0;">
      <mxGeometry width="50" height="50" relative="1" as="geometry">
        <Array as="points">
          <mxPoint x="2161" y="1616" />
          <mxPoint x="1804" y="1616" />
        </Array>
      </mxGeometry>
    </mxCell>
    <mxCell id="edge53" edge="1" value="" parent="1" source="node39" target="node28" style="html=1;rounded=1;edgeStyle=orthogonalEdgeStyle;dashed=1;startArrow=none;endArrow=openThin;endSize=12;strokeColor=#595959;exitX=0.750;exitY=0.000;exitDx=0;exitDy=0;entryX=0.500;entryY=1.000;entryDx=0;entryDy=0;">
      <mxGeometry width="50" height="50" relative="1" as="geometry">
        <Array as="points">
          <mxPoint x="2288" y="2136" />
          <mxPoint x="2284" y="2136" />
        </Array>
      </mxGeometry>
    </mxCell>
    <mxCell id="label320" parent="edge53" vertex="1" connectable="0" value="«create»" style="edgeLabel;resizable=0;html=1;align=left;verticalAlign=top;strokeColor=default;">
      <mxGeometry x="2234" y="1993" as="geometry" />
    </mxCell>
    <mxCell id="edge9" edge="1" value="" parent="1" source="node36" target="node18" style="html=1;rounded=1;edgeStyle=orthogonalEdgeStyle;dashed=1;startArrow=none;endArrow=block;endSize=12;strokeColor=#008200;exitX=0.167;exitY=0.000;exitDx=0;exitDy=0;entryX=0.500;entryY=1.001;entryDx=0;entryDy=0;">
      <mxGeometry width="50" height="50" relative="1" as="geometry">
        <Array as="points">
          <mxPoint x="2009" y="2676" />
          <mxPoint x="1864" y="2676" />
        </Array>
      </mxGeometry>
    </mxCell>
    <mxCell id="edge27" edge="1" value="" parent="1" source="node36" target="node30" style="html=1;rounded=1;edgeStyle=orthogonalEdgeStyle;dashed=1;startArrow=none;endArrow=openThin;endSize=12;strokeColor=#595959;exitX=0.833;exitY=0.000;exitDx=0;exitDy=0;entryX=0.500;entryY=1.000;entryDx=0;entryDy=0;">
      <mxGeometry width="50" height="50" relative="1" as="geometry">
        <Array as="points">
          <mxPoint x="2239" y="3196" />
          <mxPoint x="2244" y="3196" />
          <mxPoint x="2244" y="3156" />
          <mxPoint x="2364" y="3156" />
          <mxPoint x="2364" y="2356" />
          <mxPoint x="2524" y="2356" />
        </Array>
      </mxGeometry>
    </mxCell>
    <mxCell id="label164" parent="edge27" vertex="1" connectable="0" value="«create»" style="edgeLabel;resizable=0;html=1;align=left;verticalAlign=top;strokeColor=default;">
      <mxGeometry x="2279" y="3136" as="geometry" />
    </mxCell>
    <mxCell id="edge48" edge="1" value="" parent="1" source="node36" target="node39" style="html=1;rounded=1;edgeStyle=orthogonalEdgeStyle;dashed=0;startArrow=diamondThinstartSize=12;endArrow=openThin;endSize=12;strokeColor=#595959;exitX=0.500;exitY=0.000;exitDx=0;exitDy=0;entryX=0.500;entryY=1.000;entryDx=0;entryDy=0;">
      <mxGeometry width="50" height="50" relative="1" as="geometry">
        <Array as="points">
          <mxPoint x="2124" y="2676" />
          <mxPoint x="2224" y="2676" />
        </Array>
      </mxGeometry>
    </mxCell>
    <mxCell id="label288" parent="edge48" vertex="1" connectable="0" value="1" style="edgeLabel;resizable=0;html=1;align=left;verticalAlign=top;strokeColor=default;">
      <mxGeometry x="2113" y="3160" as="geometry" />
    </mxCell>
    <mxCell id="label292" parent="edge48" vertex="1" connectable="0" value="1" style="edgeLabel;resizable=0;html=1;align=left;verticalAlign=top;strokeColor=default;">
      <mxGeometry x="2213" y="2332" as="geometry" />
    </mxCell>
    <mxCell id="label293" parent="edge48" vertex="1" connectable="0" value="userRepo" style="edgeLabel;resizable=0;html=1;align=left;verticalAlign=top;strokeColor=default;">
      <mxGeometry x="2224" y="2332" as="geometry" />
    </mxCell>
    <mxCell id="edge58" edge="1" value="" parent="1" source="node36" target="node39" style="html=1;rounded=1;edgeStyle=orthogonalEdgeStyle;dashed=1;startArrow=none;endArrow=openThin;endSize=12;strokeColor=#595959;exitX=0.833;exitY=0.000;exitDx=0;exitDy=0;entryX=0.750;entryY=0.000;entryDx=0;entryDy=0;">
      <mxGeometry width="50" height="50" relative="1" as="geometry">
        <Array as="points">
          <mxPoint x="2239" y="3196" />
          <mxPoint x="2244" y="3196" />
          <mxPoint x="2244" y="3136" />
          <mxPoint x="2064" y="3136" />
          <mxPoint x="2064" y="2156" />
          <mxPoint x="2288" y="2156" />
        </Array>
      </mxGeometry>
    </mxCell>
    <mxCell id="label350" parent="edge58" vertex="1" connectable="0" value="«create»" style="edgeLabel;resizable=0;html=1;align=left;verticalAlign=top;strokeColor=default;">
      <mxGeometry x="2129" y="3116" as="geometry" />
    </mxCell>
    <mxCell id="edge20" edge="1" value="" parent="1" source="node5" target="node14" style="html=1;rounded=1;edgeStyle=orthogonalEdgeStyle;dashed=0;startArrow=diamondThinstartSize=12;endArrow=openThin;endSize=12;strokeColor=#595959;exitX=0.500;exitY=0.000;exitDx=0;exitDy=0;entryX=0.500;entryY=1.000;entryDx=0;entryDy=0;">
      <mxGeometry width="50" height="50" relative="1" as="geometry">
        <Array as="points" />
      </mxGeometry>
    </mxCell>
    <mxCell id="label120" parent="edge20" vertex="1" connectable="0" value="1" style="edgeLabel;resizable=0;html=1;align=left;verticalAlign=top;strokeColor=default;">
      <mxGeometry x="513" y="249" as="geometry" />
    </mxCell>
    <mxCell id="label124" parent="edge20" vertex="1" connectable="0" value="1" style="edgeLabel;resizable=0;html=1;align=left;verticalAlign=top;strokeColor=default;">
      <mxGeometry x="513" y="148" as="geometry" />
    </mxCell>
    <mxCell id="label125" parent="edge20" vertex="1" connectable="0" value="status" style="edgeLabel;resizable=0;html=1;align=left;verticalAlign=top;strokeColor=default;">
      <mxGeometry x="524" y="148" as="geometry" />
    </mxCell>
    <mxCell id="edge34" edge="1" value="" parent="1" source="node22" target="node32" style="html=1;rounded=1;edgeStyle=orthogonalEdgeStyle;dashed=0;startArrow=diamondThinstartSize=12;endArrow=openThin;endSize=12;strokeColor=#595959;exitX=0.250;exitY=0.000;exitDx=0;exitDy=0;entryX=0.250;entryY=1.000;entryDx=0;entryDy=0;">
      <mxGeometry width="50" height="50" relative="1" as="geometry">
        <Array as="points">
          <mxPoint x="243" y="3956" />
          <mxPoint x="244" y="3956" />
          <mxPoint x="244" y="3716" />
          <mxPoint x="1164" y="3716" />
          <mxPoint x="1164" y="3396" />
          <mxPoint x="1350" y="3396" />
        </Array>
      </mxGeometry>
    </mxCell>
    <mxCell id="label204" parent="edge34" vertex="1" connectable="0" value="1" style="edgeLabel;resizable=0;html=1;align=left;verticalAlign=top;strokeColor=default;">
      <mxGeometry x="469" y="3696" as="geometry" />
    </mxCell>
    <mxCell id="label208" parent="edge34" vertex="1" connectable="0" value="1" style="edgeLabel;resizable=0;html=1;align=left;verticalAlign=top;strokeColor=default;">
      <mxGeometry x="929" y="3696" as="geometry" />
    </mxCell>
    <mxCell id="label209" parent="edge34" vertex="1" connectable="0" value="sendResponse" style="edgeLabel;resizable=0;html=1;align=left;verticalAlign=top;strokeColor=default;">
      <mxGeometry x="1164" y="3466" as="geometry" />
    </mxCell>
    <mxCell id="edge70" edge="1" value="" parent="1" source="node22" target="node32" style="html=1;rounded=1;edgeStyle=orthogonalEdgeStyle;dashed=1;startArrow=none;endArrow=openThin;endSize=12;strokeColor=#595959;exitX=0.750;exitY=0.000;exitDx=0;exitDy=0;entryX=0.750;entryY=1.000;entryDx=0;entryDy=0;">
      <mxGeometry width="50" height="50" relative="1" as="geometry">
        <Array as="points">
          <mxPoint x="445" y="3896" />
          <mxPoint x="1244" y="3896" />
          <mxPoint x="1244" y="3416" />
          <mxPoint x="1284" y="3416" />
          <mxPoint x="1284" y="3376" />
          <mxPoint x="1579" y="3376" />
        </Array>
      </mxGeometry>
    </mxCell>
    <mxCell id="label422" parent="edge70" vertex="1" connectable="0" value="«create»" style="edgeLabel;resizable=0;html=1;align=left;verticalAlign=top;strokeColor=default;">
      <mxGeometry x="1194" y="3526" as="geometry" />
    </mxCell>
    <mxCell id="edge39" edge="1" value="" parent="1" source="node22" target="node15" style="html=1;rounded=1;edgeStyle=orthogonalEdgeStyle;dashed=1;startArrow=none;endArrow=openThin;endSize=12;strokeColor=#595959;exitX=0.750;exitY=0.000;exitDx=0;exitDy=0;entryX=0.500;entryY=1.000;entryDx=0;entryDy=0;">
      <mxGeometry width="50" height="50" relative="1" as="geometry">
        <Array as="points">
          <mxPoint x="445" y="3896" />
          <mxPoint x="1244" y="3896" />
          <mxPoint x="1244" y="3436" />
          <mxPoint x="1704" y="3436" />
          <mxPoint x="1704" y="3376" />
          <mxPoint x="1724" y="3376" />
        </Array>
      </mxGeometry>
    </mxCell>
    <mxCell id="label236" parent="edge39" vertex="1" connectable="0" value="«create»" style="edgeLabel;resizable=0;html=1;align=left;verticalAlign=top;strokeColor=default;">
      <mxGeometry x="1449" y="3416" as="geometry" />
    </mxCell>
    <mxCell id="edge17" edge="1" value="" parent="1" source="node22" target="node12" style="html=1;rounded=1;edgeStyle=orthogonalEdgeStyle;dashed=1;startArrow=none;endArrow=openThin;endSize=12;strokeColor=#595959;exitX=0.750;exitY=0.000;exitDx=0;exitDy=0;entryX=0.167;entryY=0.000;entryDx=0;entryDy=0;">
      <mxGeometry width="50" height="50" relative="1" as="geometry">
        <Array as="points">
          <mxPoint x="445" y="3896" />
          <mxPoint x="1244" y="3896" />
          <mxPoint x="1244" y="3856" />
          <mxPoint x="764" y="3856" />
          <mxPoint x="764" y="3156" />
          <mxPoint x="445" y="3156" />
        </Array>
      </mxGeometry>
    </mxCell>
    <mxCell id="label104" parent="edge17" vertex="1" connectable="0" value="«create»" style="edgeLabel;resizable=0;html=1;align=left;verticalAlign=top;strokeColor=default;">
      <mxGeometry x="714" y="3671" as="geometry" />
    </mxCell>
    <mxCell id="edge35" edge="1" value="" parent="1" source="node22" target="node12" style="html=1;rounded=1;edgeStyle=orthogonalEdgeStyle;dashed=0;startArrow=diamondThinstartSize=12;endArrow=openThin;endSize=12;strokeColor=#595959;exitX=0.250;exitY=0.000;exitDx=0;exitDy=0;entryX=0.500;entryY=0.000;entryDx=0;entryDy=0;">
      <mxGeometry width="50" height="50" relative="1" as="geometry">
        <Array as="points">
          <mxPoint x="243" y="3956" />
          <mxPoint x="244" y="3956" />
          <mxPoint x="244" y="3636" />
          <mxPoint x="364" y="3636" />
          <mxPoint x="364" y="3136" />
          <mxPoint x="564" y="3136" />
        </Array>
      </mxGeometry>
    </mxCell>
    <mxCell id="label210" parent="edge35" vertex="1" connectable="0" value="1" style="edgeLabel;resizable=0;html=1;align=left;verticalAlign=top;strokeColor=default;">
      <mxGeometry x="233" y="3946" as="geometry" />
    </mxCell>
    <mxCell id="label214" parent="edge35" vertex="1" connectable="0" value="1" style="edgeLabel;resizable=0;html=1;align=left;verticalAlign=top;strokeColor=default;">
      <mxGeometry x="509" y="3116" as="geometry" />
    </mxCell>
    <mxCell id="label215" parent="edge35" vertex="1" connectable="0" value="vehicleService" style="edgeLabel;resizable=0;html=1;align=left;verticalAlign=top;strokeColor=default;">
      <mxGeometry x="564" y="3185" as="geometry" />
    </mxCell>
    <mxCell id="edge57" edge="1" value="" parent="1" source="node1" target="node25" style="html=1;rounded=1;edgeStyle=orthogonalEdgeStyle;dashed=1;startArrow=none;endArrow=openThin;endSize=12;strokeColor=#595959;exitX=0.250;exitY=0.000;exitDx=0;exitDy=0;entryX=0.500;entryY=1.000;entryDx=0;entryDy=0;">
      <mxGeometry width="50" height="50" relative="1" as="geometry">
        <Array as="points">
          <mxPoint x="-40" y="4396" />
          <mxPoint x="-116" y="4396" />
          <mxPoint x="-116" y="3276" />
          <mxPoint x="-76" y="3276" />
          <mxPoint x="-76" y="2436" />
          <mxPoint x="-36" y="2436" />
        </Array>
      </mxGeometry>
    </mxCell>
    <mxCell id="label344" parent="edge57" vertex="1" connectable="0" value="«create»" style="edgeLabel;resizable=0;html=1;align=left;verticalAlign=top;strokeColor=default;">
      <mxGeometry x="-166" y="3266" as="geometry" />
    </mxCell>
    <mxCell id="edge47" edge="1" value="" parent="1" source="node1" target="node32" style="html=1;rounded=1;edgeStyle=orthogonalEdgeStyle;dashed=0;startArrow=diamondThinstartSize=12;endArrow=openThin;endSize=12;strokeColor=#595959;exitX=0.750;exitY=0.000;exitDx=0;exitDy=0;entryX=0.250;entryY=1.000;entryDx=0;entryDy=0;">
      <mxGeometry width="50" height="50" relative="1" as="geometry">
        <Array as="points">
          <mxPoint x="88" y="4396" />
          <mxPoint x="84" y="4396" />
          <mxPoint x="84" y="4296" />
          <mxPoint x="1124" y="4296" />
          <mxPoint x="1124" y="4116" />
          <mxPoint x="1164" y="4116" />
          <mxPoint x="1164" y="3396" />
          <mxPoint x="1350" y="3396" />
        </Array>
      </mxGeometry>
    </mxCell>
    <mxCell id="label282" parent="edge47" vertex="1" connectable="0" value="1" style="edgeLabel;resizable=0;html=1;align=left;verticalAlign=top;strokeColor=default;">
      <mxGeometry x="73" y="4361" as="geometry" />
    </mxCell>
    <mxCell id="label286" parent="edge47" vertex="1" connectable="0" value="1" style="edgeLabel;resizable=0;html=1;align=left;verticalAlign=top;strokeColor=default;">
      <mxGeometry x="1251" y="3376" as="geometry" />
    </mxCell>
    <mxCell id="label287" parent="edge47" vertex="1" connectable="0" value="sendResponse" style="edgeLabel;resizable=0;html=1;align=left;verticalAlign=top;strokeColor=default;">
      <mxGeometry x="1164" y="3566" as="geometry" />
    </mxCell>
    <mxCell id="edge43" edge="1" value="" parent="1" source="node1" target="node22" style="html=1;rounded=1;edgeStyle=orthogonalEdgeStyle;dashed=0;startArrow=diamondThinstartSize=12;endArrow=openThin;endSize=12;strokeColor=#595959;exitX=0.750;exitY=0.000;exitDx=0;exitDy=0;entryX=0.250;entryY=0.000;entryDx=0;entryDy=0;">
      <mxGeometry width="50" height="50" relative="1" as="geometry">
        <Array as="points">
          <mxPoint x="88" y="4396" />
          <mxPoint x="84" y="4396" />
          <mxPoint x="84" y="4296" />
          <mxPoint x="564" y="4296" />
          <mxPoint x="564" y="3936" />
          <mxPoint x="243" y="3936" />
        </Array>
      </mxGeometry>
    </mxCell>
    <mxCell id="label258" parent="edge43" vertex="1" connectable="0" value="1" style="edgeLabel;resizable=0;html=1;align=left;verticalAlign=top;strokeColor=default;">
      <mxGeometry x="73" y="4336" as="geometry" />
    </mxCell>
    <mxCell id="label262" parent="edge43" vertex="1" connectable="0" value="1" style="edgeLabel;resizable=0;html=1;align=left;verticalAlign=top;strokeColor=default;">
      <mxGeometry x="478" y="3916" as="geometry" />
    </mxCell>
    <mxCell id="label263" parent="edge43" vertex="1" connectable="0" value="vehicleController" style="edgeLabel;resizable=0;html=1;align=left;verticalAlign=top;strokeColor=default;">
      <mxGeometry x="243" y="3968" as="geometry" />
    </mxCell>
    <mxCell id="edge51" edge="1" value="" parent="1" source="node1" target="node22" style="html=1;rounded=1;edgeStyle=orthogonalEdgeStyle;dashed=1;startArrow=none;endArrow=openThin;endSize=12;strokeColor=#595959;exitX=0.250;exitY=0.000;exitDx=0;exitDy=0;entryX=0.750;entryY=0.000;entryDx=0;entryDy=0;">
      <mxGeometry width="50" height="50" relative="1" as="geometry">
        <Array as="points">
          <mxPoint x="-40" y="4396" />
          <mxPoint x="-116" y="4396" />
          <mxPoint x="-116" y="4156" />
          <mxPoint x="124" y="4156" />
          <mxPoint x="124" y="3916" />
          <mxPoint x="445" y="3916" />
        </Array>
      </mxGeometry>
    </mxCell>
    <mxCell id="label308" parent="edge51" vertex="1" connectable="0" value="«create»" style="edgeLabel;resizable=0;html=1;align=left;verticalAlign=top;strokeColor=default;">
      <mxGeometry x="-21" y="4136" as="geometry" />
    </mxCell>
    <mxCell id="edge64" edge="1" value="" parent="1" source="node1" target="node27" style="html=1;rounded=1;edgeStyle=orthogonalEdgeStyle;dashed=1;startArrow=none;endArrow=openThin;endSize=12;strokeColor=#595959;exitX=0.250;exitY=0.000;exitDx=0;exitDy=0;entryX=0.500;entryY=1.000;entryDx=0;entryDy=0;">
      <mxGeometry width="50" height="50" relative="1" as="geometry">
        <Array as="points">
          <mxPoint x="-40" y="4396" />
          <mxPoint x="-116" y="4396" />
          <mxPoint x="-116" y="4156" />
          <mxPoint x="-156" y="4156" />
          <mxPoint x="-156" y="2096" />
          <mxPoint x="84" y="2096" />
        </Array>
      </mxGeometry>
    </mxCell>
    <mxCell id="label386" parent="edge64" vertex="1" connectable="0" value="«create»" style="edgeLabel;resizable=0;html=1;align=left;verticalAlign=top;strokeColor=default;">
      <mxGeometry x="-166" y="4206" as="geometry" />
    </mxCell>
    <mxCell id="edge50" edge="1" value="" parent="1" source="node1" target="node12" style="html=1;rounded=1;edgeStyle=orthogonalEdgeStyle;dashed=0;startArrow=diamondThinstartSize=12;endArrow=openThin;endSize=12;strokeColor=#595959;exitX=0.750;exitY=0.000;exitDx=0;exitDy=0;entryX=0.500;entryY=0.000;entryDx=0;entryDy=0;">
      <mxGeometry width="50" height="50" relative="1" as="geometry">
        <Array as="points">
          <mxPoint x="88" y="4396" />
          <mxPoint x="84" y="4396" />
          <mxPoint x="84" y="3696" />
          <mxPoint x="244" y="3696" />
          <mxPoint x="244" y="3636" />
          <mxPoint x="364" y="3636" />
          <mxPoint x="364" y="3136" />
          <mxPoint x="564" y="3136" />
        </Array>
      </mxGeometry>
    </mxCell>
    <mxCell id="label300" parent="edge50" vertex="1" connectable="0" value="1" style="edgeLabel;resizable=0;html=1;align=left;verticalAlign=top;strokeColor=default;">
      <mxGeometry x="73" y="4211" as="geometry" />
    </mxCell>
    <mxCell id="label304" parent="edge50" vertex="1" connectable="0" value="1" style="edgeLabel;resizable=0;html=1;align=left;verticalAlign=top;strokeColor=default;">
      <mxGeometry x="409" y="3116" as="geometry" />
    </mxCell>
    <mxCell id="label305" parent="edge50" vertex="1" connectable="0" value="vehicleService" style="edgeLabel;resizable=0;html=1;align=left;verticalAlign=top;strokeColor=default;">
      <mxGeometry x="364" y="3501" as="geometry" />
    </mxCell>
    <mxCell id="edge44" edge="1" value="" parent="1" source="node27" target="node14" style="html=1;rounded=1;edgeStyle=orthogonalEdgeStyle;dashed=0;startArrow=diamondThinstartSize=12;endArrow=openThin;endSize=12;strokeColor=#595959;exitX=0.500;exitY=0.000;exitDx=0;exitDy=0;entryX=0.500;entryY=1.000;entryDx=0;entryDy=0;">
      <mxGeometry width="50" height="50" relative="1" as="geometry">
        <Array as="points">
          <mxPoint x="84" y="256" />
          <mxPoint x="524" y="256" />
        </Array>
      </mxGeometry>
    </mxCell>
    <mxCell id="label264" parent="edge44" vertex="1" connectable="0" value="1" style="edgeLabel;resizable=0;html=1;align=left;verticalAlign=top;strokeColor=default;">
      <mxGeometry x="73" y="791" as="geometry" />
    </mxCell>
    <mxCell id="label268" parent="edge44" vertex="1" connectable="0" value="1" style="edgeLabel;resizable=0;html=1;align=left;verticalAlign=top;strokeColor=default;">
      <mxGeometry x="431" y="236" as="geometry" />
    </mxCell>
    <mxCell id="label269" parent="edge44" vertex="1" connectable="0" value="status" style="edgeLabel;resizable=0;html=1;align=left;verticalAlign=top;strokeColor=default;">
      <mxGeometry x="524" y="186" as="geometry" />
    </mxCell>
    <mxCell id="edge66" edge="1" value="" parent="1" source="node27" target="node6" style="html=1;rounded=1;edgeStyle=orthogonalEdgeStyle;dashed=0;startArrow=diamondThinstartSize=12;endArrow=openThin;endSize=12;strokeColor=#595959;exitX=0.500;exitY=0.000;exitDx=0;exitDy=0;entryX=0.500;entryY=1.000;entryDx=0;entryDy=0;">
      <mxGeometry width="50" height="50" relative="1" as="geometry">
        <Array as="points" />
      </mxGeometry>
    </mxCell>
    <mxCell id="label396" parent="edge66" vertex="1" connectable="0" value="1" style="edgeLabel;resizable=0;html=1;align=left;verticalAlign=top;strokeColor=default;">
      <mxGeometry x="73" y="759" as="geometry" />
    </mxCell>
    <mxCell id="label400" parent="edge66" vertex="1" connectable="0" value="1" style="edgeLabel;resizable=0;html=1;align=left;verticalAlign=top;strokeColor=default;">
      <mxGeometry x="73" y="171" as="geometry" />
    </mxCell>
    <mxCell id="label401" parent="edge66" vertex="1" connectable="0" value="vehicle_type" style="edgeLabel;resizable=0;html=1;align=left;verticalAlign=top;strokeColor=default;">
      <mxGeometry x="84" y="171" as="geometry" />
    </mxCell>
    <mxCell id="edge2" edge="1" value="" parent="1" source="node9" target="node21" style="html=1;rounded=1;edgeStyle=orthogonalEdgeStyle;dashed=1;startArrow=none;endArrow=block;endSize=12;strokeColor=#008200;exitX=0.750;exitY=0.000;exitDx=0;exitDy=0;entryX=0.500;entryY=1.000;entryDx=0;entryDy=0;">
      <mxGeometry width="50" height="50" relative="1" as="geometry">
        <Array as="points">
          <mxPoint x="639" y="1616" />
          <mxPoint x="924" y="1616" />
        </Array>
      </mxGeometry>
    </mxCell>
    <mxCell id="edge40" edge="1" value="" parent="1" source="node9" target="node5" style="html=1;rounded=1;edgeStyle=orthogonalEdgeStyle;dashed=1;startArrow=none;endArrow=openThin;endSize=12;strokeColor=#595959;exitX=0.250;exitY=0.000;exitDx=0;exitDy=0;entryX=0.500;entryY=1.000;entryDx=0;entryDy=0;">
      <mxGeometry width="50" height="50" relative="1" as="geometry">
        <Array as="points">
          <mxPoint x="489" y="2116" />
          <mxPoint x="484" y="2116" />
          <mxPoint x="484" y="2056" />
          <mxPoint x="524" y="2056" />
        </Array>
      </mxGeometry>
    </mxCell>
    <mxCell id="label242" parent="edge40" vertex="1" connectable="0" value="«create»" style="edgeLabel;resizable=0;html=1;align=left;verticalAlign=top;strokeColor=default;">
      <mxGeometry x="459" y="1996" as="geometry" />
    </mxCell>
    <mxCell id="edge19" edge="1" value="" parent="1" source="node9" target="node27" style="html=1;rounded=1;edgeStyle=orthogonalEdgeStyle;dashed=1;startArrow=none;endArrow=openThin;endSize=12;strokeColor=#595959;exitX=0.250;exitY=0.000;exitDx=0;exitDy=0;entryX=0.500;entryY=1.000;entryDx=0;entryDy=0;">
      <mxGeometry width="50" height="50" relative="1" as="geometry">
        <Array as="points">
          <mxPoint x="489" y="2116" />
          <mxPoint x="484" y="2116" />
          <mxPoint x="484" y="2076" />
          <mxPoint x="84" y="2076" />
        </Array>
      </mxGeometry>
    </mxCell>
    <mxCell id="label116" parent="edge19" vertex="1" connectable="0" value="«create»" style="edgeLabel;resizable=0;html=1;align=left;verticalAlign=top;strokeColor=default;">
      <mxGeometry x="392" y="2056" as="geometry" />
    </mxCell>
    <mxCell id="edge8" edge="1" value="" parent="1" source="node12" target="node8" style="html=1;rounded=1;edgeStyle=orthogonalEdgeStyle;dashed=1;startArrow=none;endArrow=block;endSize=12;strokeColor=#008200;exitX=0.833;exitY=0.000;exitDx=0;exitDy=0;entryX=0.500;entryY=1.000;entryDx=0;entryDy=0;">
      <mxGeometry width="50" height="50" relative="1" as="geometry">
        <Array as="points">
          <mxPoint x="683" y="3136" />
          <mxPoint x="844" y="3136" />
        </Array>
      </mxGeometry>
    </mxCell>
    <mxCell id="edge25" edge="1" value="" parent="1" source="node12" target="node25" style="html=1;rounded=1;edgeStyle=orthogonalEdgeStyle;dashed=1;startArrow=none;endArrow=openThin;endSize=12;strokeColor=#595959;exitX=0.167;exitY=0.000;exitDx=0;exitDy=0;entryX=0.500;entryY=1.000;entryDx=0;entryDy=0;">
      <mxGeometry width="50" height="50" relative="1" as="geometry">
        <Array as="points">
          <mxPoint x="445" y="3176" />
          <mxPoint x="384" y="3176" />
          <mxPoint x="384" y="2956" />
          <mxPoint x="-76" y="2956" />
          <mxPoint x="-76" y="2436" />
          <mxPoint x="-36" y="2436" />
        </Array>
      </mxGeometry>
    </mxCell>
    <mxCell id="label152" parent="edge25" vertex="1" connectable="0" value="«create»" style="edgeLabel;resizable=0;html=1;align=left;verticalAlign=top;strokeColor=default;">
      <mxGeometry x="129" y="2936" as="geometry" />
    </mxCell>
    <mxCell id="edge55" edge="1" value="" parent="1" source="node12" target="node27" style="html=1;rounded=1;edgeStyle=orthogonalEdgeStyle;dashed=1;startArrow=none;endArrow=openThin;endSize=12;strokeColor=#595959;exitX=0.167;exitY=0.000;exitDx=0;exitDy=0;entryX=0.500;entryY=1.000;entryDx=0;entryDy=0;">
      <mxGeometry width="50" height="50" relative="1" as="geometry">
        <Array as="points">
          <mxPoint x="445" y="3176" />
          <mxPoint x="384" y="3176" />
          <mxPoint x="384" y="2676" />
          <mxPoint x="344" y="2676" />
          <mxPoint x="344" y="2096" />
          <mxPoint x="84" y="2096" />
        </Array>
      </mxGeometry>
    </mxCell>
    <mxCell id="label332" parent="edge55" vertex="1" connectable="0" value="«create»" style="edgeLabel;resizable=0;html=1;align=left;verticalAlign=top;strokeColor=default;">
      <mxGeometry x="294" y="2521" as="geometry" />
    </mxCell>
    <mxCell id="edge33" edge="1" value="" parent="1" source="node12" target="node9" style="html=1;rounded=1;edgeStyle=orthogonalEdgeStyle;dashed=0;startArrow=diamondThinstartSize=12;endArrow=openThin;endSize=12;strokeColor=#595959;exitX=0.500;exitY=0.000;exitDx=0;exitDy=0;entryX=0.500;entryY=1.000;entryDx=0;entryDy=0;">
      <mxGeometry width="50" height="50" relative="1" as="geometry">
        <Array as="points" />
      </mxGeometry>
    </mxCell>
    <mxCell id="label198" parent="edge33" vertex="1" connectable="0" value="1" style="edgeLabel;resizable=0;html=1;align=left;verticalAlign=top;strokeColor=default;">
      <mxGeometry x="553" y="3031" as="geometry" />
    </mxCell>
    <mxCell id="label202" parent="edge33" vertex="1" connectable="0" value="1" style="edgeLabel;resizable=0;html=1;align=left;verticalAlign=top;strokeColor=default;">
      <mxGeometry x="553" y="2469" as="geometry" />
    </mxCell>
    <mxCell id="label203" parent="edge33" vertex="1" connectable="0" value="vehicleRepository" style="edgeLabel;resizable=0;html=1;align=left;verticalAlign=top;strokeColor=default;">
      <mxGeometry x="564" y="2372" as="geometry" />
    </mxCell>
    <mxCell id="edge41" edge="1" value="" parent="1" source="node12" target="node9" style="html=1;rounded=1;edgeStyle=orthogonalEdgeStyle;dashed=1;startArrow=none;endArrow=openThin;endSize=12;strokeColor=#595959;exitX=0.167;exitY=0.000;exitDx=0;exitDy=0;entryX=0.250;entryY=0.000;entryDx=0;entryDy=0;">
      <mxGeometry width="50" height="50" relative="1" as="geometry">
        <Array as="points">
          <mxPoint x="445" y="3176" />
          <mxPoint x="384" y="3176" />
          <mxPoint x="384" y="2096" />
          <mxPoint x="489" y="2096" />
        </Array>
      </mxGeometry>
    </mxCell>
    <mxCell id="label248" parent="edge41" vertex="1" connectable="0" value="«create»" style="edgeLabel;resizable=0;html=1;align=left;verticalAlign=top;strokeColor=default;">
      <mxGeometry x="334" y="2626" as="geometry" />
    </mxCell>
  </root>
</mxGraphModel>